<?xml version="1.0" encoding="utf-8"?>
<!-- Generator: Adobe Illustrator 15.0.0, SVG Export Plug-In . SVG Version: 6.00 Build 0)  -->
<!DOCTYPE svg PUBLIC "-//W3C//DTD SVG 1.1//EN" "http://www.w3.org/Graphics/SVG/1.1/DTD/svg11.dtd">
<svg version="1.1" xmlns="http://www.w3.org/2000/svg" xmlns:xlink="http://www.w3.org/1999/xlink" x="0px" y="0px" width="67px"
	 height="57px" viewBox="0 0 67 57" enable-background="new 0 0 67 57" xml:space="preserve">
<g id="DO_NOT_EDIT_-_BOUNDING_BOX">
	<rect id="BOUNDING_BOX" fill="none" width="67" height="57"/>
</g>
<g id="PLACE_YOUR_GRAPHIC_HERE">
	<path opacity="0.3" d="M33.5,6.5c-12.702,0-23,10.297-23,23c0,12.702,10.298,23,23,23c12.703,0,23-10.298,23-23
		C56.5,16.797,46.203,6.5,33.5,6.5z M37.039,45.423c0,0.975-0.799,1.77-1.77,1.77h-3.538c-0.975,0-1.77-0.795-1.77-1.77V29.5
		c0-0.971-0.798-1.769-1.77-1.769h-1.769c-0.975,0-1.77-0.795-1.77-1.77c0-0.971,0.795-1.769,1.77-1.769h8.846
		c0.971,0,1.77,0.798,1.77,1.769V45.423z M33.5,20.654c-2.439,0-4.423-1.983-4.423-4.423c0-2.44,1.983-4.423,4.423-4.423
		c2.443,0,4.424,1.983,4.424,4.423C37.924,18.67,35.943,20.654,33.5,20.654z"/>
	<rect x="16.381" y="16.446" fill="none" width="30" height="30"/>
	<path opacity="0.15" d="M33.5,52.5c-13.233,0-24-10.767-24-24s10.767-24,24-24s24,10.767,24,24S46.733,52.5,33.5,52.5z
		 M26.424,24.192c-0.417,0-0.77,0.352-0.77,0.769c0,0.424,0.345,0.77,0.77,0.77h1.769c1.527,0,2.77,1.242,2.77,2.769v15.923
		c0,0.425,0.345,0.77,0.77,0.77h3.538c0.417,0,0.77-0.353,0.77-0.77V24.961c0-0.417-0.353-0.769-0.77-0.769H26.424z M33.5,11.808
		c-1.887,0-3.423,1.536-3.423,3.423c0,1.887,1.536,3.423,3.423,3.423c1.888,0,3.424-1.536,3.424-3.423
		C36.924,13.343,35.388,11.808,33.5,11.808z"/>
	<path opacity="0.15" d="M33.5,5.5c-12.702,0-23,10.297-23,23c0,12.702,10.298,23,23,23c12.703,0,23-10.298,23-23
		C56.5,15.797,46.203,5.5,33.5,5.5z M37.039,44.423c0,0.975-0.799,1.77-1.77,1.77h-3.538c-0.975,0-1.77-0.795-1.77-1.77V28.5
		c0-0.971-0.798-1.769-1.77-1.769h-1.769c-0.975,0-1.77-0.795-1.77-1.77c0-0.971,0.795-1.769,1.77-1.769h8.846
		c0.971,0,1.77,0.798,1.77,1.769V44.423z M33.5,19.654c-2.439,0-4.423-1.983-4.423-4.423c0-2.44,1.983-4.423,4.423-4.423
		c2.443,0,4.424,1.983,4.424,4.423C37.924,17.67,35.943,19.654,33.5,19.654z"/>
	<linearGradient id="SVGID_1_" gradientUnits="userSpaceOnUse" x1="33.5005" y1="51.5" x2="33.5005" y2="5.5005">
		<stop  offset="0" style="stop-color:#D0CBC5"/>
		<stop  offset="0.5031" style="stop-color:#FAFCEF"/>
		<stop  offset="0.9693" style="stop-color:#FFFFFF"/>
	</linearGradient>
	<path fill="url(#SVGID_1_)" d="M33.5,5.5c-12.702,0-23,10.297-23,23c0,12.702,10.298,23,23,23c12.703,0,23-10.298,23-23
		C56.5,15.797,46.203,5.5,33.5,5.5z M37.039,44.423c0,0.975-0.799,1.77-1.77,1.77h-3.538c-0.975,0-1.77-0.795-1.77-1.77V28.5
		c0-0.971-0.798-1.769-1.77-1.769h-1.769c-0.975,0-1.77-0.795-1.77-1.77c0-0.971,0.795-1.769,1.77-1.769h8.846
		c0.971,0,1.77,0.798,1.77,1.769V44.423z M33.5,19.654c-2.439,0-4.423-1.983-4.423-4.423c0-2.44,1.983-4.423,4.423-4.423
		c2.443,0,4.424,1.983,4.424,4.423C37.924,17.67,35.943,19.654,33.5,19.654z"/>
	<path fill="#FFFFFF" d="M10.513,29c-0.004-0.167-0.013-0.333-0.013-0.5c0-12.703,10.298-23,23-23c12.703,0,23,10.297,23,23
		c0,0.167-0.009,0.333-0.013,0.5C56.221,16.529,46.035,6.5,33.5,6.5C20.965,6.5,10.779,16.529,10.513,29z M33.5,20.654
		c2.443,0,4.424-1.983,4.424-4.423c0-0.171-0.031-0.334-0.051-0.5c-0.251,2.202-2.102,3.923-4.373,3.923
		c-2.268,0-4.121-1.721-4.372-3.923c-0.019,0.166-0.051,0.329-0.051,0.5C29.077,18.67,31.061,20.654,33.5,20.654z M26.424,27.731
		h1.769c0.972,0,1.77,0.798,1.77,1.769v-1c0-0.971-0.798-1.769-1.77-1.769h-1.769c-0.8,0-1.47-0.539-1.688-1.269
		c-0.047,0.16-0.081,0.325-0.081,0.5C24.654,26.936,25.449,27.731,26.424,27.731z M29.962,45.423c0,0.975,0.795,1.77,1.77,1.77
		h3.538c0.971,0,1.77-0.795,1.77-1.77v-1c0,0.975-0.799,1.77-1.77,1.77h-3.538c-0.975,0-1.77-0.795-1.77-1.77V45.423z"/>
</g>
<g id="DO_NOT_EDIT_-_FOCAL_ZONE_GUIDES">
</g>
</svg>
