<?xml version="1.0" encoding="utf-8"?>
<!-- Generator: Adobe Illustrator 15.0.2, SVG Export Plug-In . SVG Version: 6.00 Build 0)  -->
<!DOCTYPE svg PUBLIC "-//W3C//DTD SVG 1.1//EN" "http://www.w3.org/Graphics/SVG/1.1/DTD/svg11.dtd">
<svg version="1.1" xmlns="http://www.w3.org/2000/svg" xmlns:xlink="http://www.w3.org/1999/xlink" x="0px" y="0px" width="67px"
	 height="57px" viewBox="0 0 67 57" enable-background="new 0 0 67 57" xml:space="preserve">
<g id="DO_NOT_EDIT_-_BOUNDING_BOX">
	<rect id="BOUNDING_BOX" fill="none" width="67" height="57"/>
</g>
<g id="PLACE_YOUR_GRAPHIC_HERE">
	<path opacity="0.3" d="M31.258,51.088l-2.735-2.736c-0.781-0.781-0.781-2.047,0-2.828l2.735-2.737
		c0.375-0.375,0.884-0.586,1.415-0.586h0.685c0.365,0,0.719,0.1,1.026,0.284c0.309-0.185,0.663-0.284,1.027-0.284h0.685
		c0.509,0,0.998,0.194,1.368,0.541c0.37-0.347,0.859-0.541,1.368-0.541h2.053c0.364,0,0.719,0.1,1.026,0.283
		c0.135-0.08,0.278-0.145,0.428-0.191l0.177-0.354c0.051-0.103,0.124-0.187,0.19-0.276c-1.159-0.801-2.038-1.931-2.663-3.245
		c-0.38-0.801-0.643-1.789-0.589-2.672c0.032-0.535,0.471-0.781,0.78-1.168c0.326-0.404,0.599-0.854,0.834-1.316
		c0.683-1.329,0.906-2.762,1.426-4.136c0.801,0.979,1.318-1.031,1.462-1.535c0.326-1.146,1.556-4.258,0.433-4.619
		c-0.166-0.053-0.313,0.005-0.423,0.133c0.021-0.274,0.337-1.855,0.524-2.872c0.097-0.539,0.162-1.083,0.162-1.632
		c0.002-0.262,0.011-0.525,0.021-0.788c0.002-0.05-0.447-3.201-0.999-4.404c-0.458-1.003-1.079-2.076-2.069-2.648
		c-1.078-0.625-2.357-0.94-3.537-1.314c-1.834-0.582-3.754-1.39-5.715-1.226c-0.922,0.078-1.679,0.514-2.555,0.735
		c-0.563,0.143-1.127-0.05-1.693,0.062c-0.576,0.113-0.828,0.509-1.084,0.991c-0.131,0.244-0.119,0.53-0.244,0.771
		c-0.161,0.312-0.592,0.237-0.875,0.298c-0.787,0.167-1.108,0.87-1.465,1.509c-0.773,1.39-1.215,4.85-1.211,4.933
		c0.017,0.282,0.005,1.664,0.035,2.068c0,1.146,0.186,2.335,0.575,3.488c-1.078-0.194-0.614,1.825-0.496,2.291
		c0.143,0.562,0.856,4.765,1.806,3.87c0.388,1.219,0.638,2.449,1.179,3.621c0.365,0.795,0.822,1.582,1.46,2.193
		c0.698,0.672,0.219,1.941,0.021,2.752c-0.283,1.15-0.853,2.201-1.703,3.035c-1.115,1.092-2.558,1.555-3.945,2.172
		c-1.828,0.811-3.794,1.65-5.409,2.846c-0.389,0.287-0.86,1.804-0.69,1.92c0.75,0.521,1.546,0.978,2.37,1.369
		c3.909,1.863,8.358,2.408,12.639,2.584c2.407,0.097,1.604-0.055,1.604-0.055C32.142,51.674,31.633,51.463,31.258,51.088z
		 M55.254,40.096c-0.377-0.377-1.297-0.753-2.045-0.836l-3.438-0.382c-0.748-0.083-1.672,0.384-2.045,1.037l-2.054,2.917h-1.368
		L43.621,44.2h-0.684l-0.685,0.685h-0.687L40.885,44.2h-2.053l-0.684,0.685h-1.369L36.096,44.2h-0.685l-0.685,0.685h-0.685
		L33.357,44.2h-0.685l-2.735,2.737l2.735,2.736H43.62l0.685,1.368h1.368l2.054,2.917c0.373,0.652,1.297,1.12,2.045,1.037
		l3.438-0.382c0.748-0.083,1.668-0.459,2.045-0.837c0.375-0.375,0.684-1.299,0.684-2.053v-9.578
		C55.938,41.396,55.629,40.473,55.254,40.096z M53.201,50.7c0,0.567-0.461,1.026-1.027,1.026s-1.025-0.459-1.025-1.026v-7.525
		c0-0.567,0.459-1.026,1.025-1.026s1.027,0.459,1.027,1.026V50.7z"/>
	<path opacity="0.15" d="M49.595,55.006c-1.071,0-2.223-0.652-2.736-1.551l-1.704-2.413h-0.85c-0.379,0-0.725-0.214-0.895-0.553
		l-0.408-0.815H32.673c-0.265,0-0.52-0.105-0.707-0.293l-2.735-2.736c-0.045-0.045-0.085-0.094-0.12-0.145
		c0.035,0.052,0.074,0.1,0.12,0.145l2.735,2.736c0.189,0.188,0.44,0.293,0.708,0.293c0.062,0,0.124,0.006,0.185,0.018
		c0.81,0.152,0.972,0.777,0.939,1.123c-0.088,0.943-1.063,0.946-1.484,0.946c-0.001,0-0.002,0-0.004,0
		c-0.272,0-0.68-0.009-1.281-0.033c-3.774-0.154-8.664-0.6-13.029-2.681c-0.889-0.422-1.733-0.91-2.511-1.45
		c-0.166-0.113-0.455-0.39-0.465-0.923c-0.009-0.524,0.42-2.098,1.132-2.623c1.608-1.19,3.472-2.015,5.275-2.813l0.322-0.143
		c0.266-0.118,0.535-0.231,0.803-0.345c1.069-0.449,2.079-0.874,2.848-1.628c0.691-0.678,1.187-1.563,1.432-2.56l0.097-0.369
		c0.093-0.343,0.338-1.251,0.16-1.423c-0.644-0.617-1.176-1.411-1.675-2.496c-0.403-0.873-0.652-1.758-0.894-2.613
		c-0.036-0.128-0.072-0.256-0.109-0.384c-1.058-0.401-1.524-2.202-1.969-4.324c-0.033-0.157-0.058-0.276-0.074-0.341
		c-0.53-2.103-0.011-2.77,0.16-2.989c0.031-0.04,0.063-0.077,0.097-0.113c-0.243-0.957-0.366-1.938-0.366-2.925
		c-0.016-0.169-0.021-0.753-0.024-1.262c-0.002-0.334-0.002-0.633-0.009-0.745c-0.012-0.252,0.451-3.889,1.335-5.479l0.089-0.161
		c0.369-0.672,0.875-1.593,2.042-1.84c0.077-0.017,0.162-0.028,0.252-0.038c0.037-0.152,0.091-0.335,0.193-0.526
		c0.237-0.447,0.683-1.286,1.773-1.5c0.204-0.04,0.409-0.055,0.613-0.055c0.148,0,0.296,0.008,0.444,0.017
		c0.108,0.006,0.217,0.013,0.326,0.013s0.19-0.008,0.255-0.024c0.302-0.076,0.587-0.182,0.87-0.285
		c0.536-0.196,1.144-0.417,1.847-0.477c0.204-0.017,0.406-0.025,0.608-0.025c1.615,0,3.123,0.505,4.582,0.994
		c0.306,0.103,0.609,0.204,0.911,0.3l0.682,0.209c1.025,0.31,2.085,0.63,3.055,1.192c1.279,0.739,1.996,2.044,2.477,3.098
		c0.604,1.314,1.099,4.621,1.089,4.859c-0.01,0.253-0.019,0.505-0.021,0.756c0,0.542-0.059,1.134-0.178,1.801
		c0,0-0.298,1.573-0.345,1.823c0.489,0.34,0.875,1.041,0.657,2.463c-0.132,0.856-0.444,1.829-0.673,2.54
		c-0.078,0.244-0.148,0.459-0.196,0.629c-0.229,0.817-0.658,2.344-1.789,2.511c-0.064,0.214-0.128,0.431-0.192,0.653
		c-0.255,0.882-0.519,1.793-0.979,2.689c-0.294,0.575-0.604,1.063-0.945,1.487c-0.106,0.134-0.228,0.257-0.347,0.378
		c-0.079,0.078-0.197,0.197-0.22,0.243c-0.032,0.612,0.152,1.429,0.5,2.162c0.584,1.228,1.367,2.188,2.328,2.851
		c0.223,0.154,0.374,0.392,0.418,0.659c0.037,0.22-0.001,0.444-0.105,0.638c0.186-0.191,0.443-0.304,0.718-0.304h0.85l1.755-2.492
		c0.462-0.819,1.613-1.472,2.686-1.472c0.097,0,0.193,0.006,0.287,0.016l3.438,0.382c0.849,0.095,2.029,0.511,2.642,1.123
		c0.642,0.645,0.977,1.875,0.977,2.758v9.578c0,0.886-0.335,2.119-0.977,2.76c-0.611,0.613-1.792,1.029-2.642,1.124l-3.438,0.382
		C49.788,55,49.692,55.006,49.595,55.006z M52.174,42.148c-0.015,0-0.025,0.012-0.025,0.026V49.7l0.053-7.525L52.174,42.148z
		 M32.673,42.2c-0.267,0-0.519,0.104-0.708,0.293L29.23,45.23c-0.045,0.045-0.085,0.093-0.12,0.144
		c0.035-0.05,0.074-0.099,0.119-0.144l2.735-2.737C32.153,42.306,32.408,42.2,32.673,42.2z M37.733,42.885l0.391-0.392
		c0.187-0.186,0.438-0.291,0.701-0.293c-0.252,0.002-0.493,0.098-0.678,0.271c-0.192,0.181-0.438,0.271-0.684,0.271
		s-0.491-0.09-0.684-0.271c-0.185-0.173-0.426-0.269-0.678-0.271c0.263,0.002,0.515,0.107,0.701,0.293l0.391,0.392H37.733z
		 M41.203,42.252c0.146,0.049,0.279,0.132,0.391,0.242l0.316,0.319l0.32-0.32c0.069-0.07,0.148-0.128,0.234-0.174
		c-0.015,0.007-0.028,0.016-0.043,0.023c-0.157,0.094-0.334,0.141-0.511,0.141c-0.178,0-0.354-0.047-0.513-0.142
		C41.337,42.305,41.271,42.274,41.203,42.252z M33.892,42.355c0.062,0.039,0.12,0.085,0.172,0.138l0.32,0.319l0.319-0.319
		c0.056-0.056,0.117-0.104,0.184-0.145c-0.156,0.091-0.33,0.136-0.504,0.136C34.214,42.484,34.045,42.441,33.892,42.355z
		 M43.228,41.751c-0.121,0.234-0.329,0.411-0.58,0.492c0.094-0.028,0.191-0.043,0.29-0.043h0.065L43.228,41.751z"/>
	<path opacity="0.15" d="M31.258,50.088l-2.735-2.736c-0.781-0.781-0.781-2.047,0-2.828l2.735-2.737
		c0.375-0.375,0.884-0.586,1.415-0.586h0.685c0.365,0,0.719,0.1,1.026,0.284c0.309-0.185,0.663-0.284,1.027-0.284h0.685
		c0.509,0,0.998,0.194,1.368,0.541c0.37-0.347,0.859-0.541,1.368-0.541h2.053c0.364,0,0.719,0.1,1.026,0.283
		c0.135-0.08,0.278-0.145,0.428-0.191l0.177-0.354c0.051-0.103,0.124-0.187,0.19-0.276c-1.159-0.801-2.038-1.931-2.663-3.245
		c-0.38-0.801-0.643-1.789-0.589-2.672c0.032-0.535,0.471-0.781,0.78-1.168c0.326-0.404,0.599-0.854,0.834-1.316
		c0.683-1.329,0.906-2.762,1.426-4.136c0.801,0.979,1.318-1.031,1.462-1.535c0.326-1.146,1.556-4.258,0.433-4.619
		c-0.166-0.053-0.313,0.005-0.423,0.133c0.021-0.274,0.337-1.855,0.524-2.872c0.097-0.539,0.162-1.083,0.162-1.632
		c0.002-0.262,0.011-0.525,0.021-0.788c0.002-0.05-0.447-3.201-0.999-4.404c-0.458-1.003-1.079-2.076-2.069-2.648
		c-1.078-0.625-2.357-0.94-3.537-1.314c-1.834-0.582-3.754-1.39-5.715-1.226c-0.922,0.078-1.679,0.514-2.555,0.735
		c-0.563,0.143-1.127-0.05-1.693,0.062c-0.576,0.113-0.828,0.509-1.084,0.991c-0.131,0.244-0.119,0.53-0.244,0.771
		c-0.161,0.312-0.592,0.237-0.875,0.298c-0.787,0.167-1.108,0.87-1.465,1.509c-0.773,1.39-1.215,4.85-1.211,4.933
		c0.017,0.282,0.005,1.664,0.035,2.068c0,1.146,0.186,2.335,0.575,3.488c-1.078-0.194-0.614,1.825-0.496,2.291
		c0.143,0.562,0.856,4.765,1.806,3.871c0.388,1.218,0.638,2.449,1.179,3.621c0.365,0.795,0.822,1.582,1.46,2.193
		c0.698,0.672,0.219,1.941,0.021,2.752c-0.283,1.15-0.853,2.201-1.703,3.035c-1.115,1.092-2.558,1.555-3.945,2.172
		c-1.828,0.811-3.794,1.65-5.409,2.846c-0.389,0.287-0.86,1.804-0.69,1.92c0.75,0.521,1.546,0.978,2.37,1.369
		c3.909,1.863,8.358,2.408,12.639,2.584c2.407,0.097,1.604-0.055,1.604-0.055C32.142,50.674,31.633,50.463,31.258,50.088z
		 M55.254,39.096c-0.377-0.377-1.297-0.753-2.045-0.836l-3.438-0.382c-0.748-0.083-1.672,0.384-2.045,1.037l-2.054,2.917h-1.368
		L43.621,43.2h-0.684l-0.685,0.685h-0.687L40.885,43.2h-2.053l-0.684,0.685h-1.369L36.096,43.2h-0.685l-0.685,0.685h-0.685
		L33.357,43.2h-0.685l-2.735,2.737l2.735,2.736H43.62l0.685,1.368h1.368l2.054,2.917c0.373,0.652,1.297,1.12,2.045,1.037
		l3.438-0.382c0.748-0.083,1.668-0.459,2.045-0.837c0.375-0.375,0.684-1.299,0.684-2.053v-9.578
		C55.938,40.396,55.629,39.473,55.254,39.096z M53.201,49.7c0,0.567-0.461,1.026-1.027,1.026s-1.025-0.459-1.025-1.026v-7.525
		c0-0.567,0.459-1.026,1.025-1.026s1.027,0.459,1.027,1.026V49.7z"/>
	<linearGradient id="SVGID_1_" gradientUnits="userSpaceOnUse" x1="35.9805" y1="54.0059" x2="35.9805" y2="7.1992">
		<stop  offset="0" style="stop-color:#D0CBC5"/>
		<stop  offset="0.5031" style="stop-color:#FAFCEF"/>
		<stop  offset="0.9693" style="stop-color:#FFFFFF"/>
	</linearGradient>
	<path fill="url(#SVGID_1_)" d="M31.258,50.088l-2.735-2.736c-0.781-0.781-0.781-2.047,0-2.828l2.735-2.737
		c0.375-0.375,0.884-0.586,1.415-0.586h0.685c0.365,0,0.719,0.1,1.026,0.284c0.309-0.185,0.663-0.284,1.027-0.284h0.685
		c0.509,0,0.998,0.194,1.368,0.541c0.37-0.347,0.859-0.541,1.368-0.541h2.053c0.364,0,0.719,0.1,1.026,0.283
		c0.135-0.08,0.278-0.145,0.428-0.191l0.177-0.354c0.051-0.103,0.124-0.187,0.19-0.276c-1.159-0.801-2.038-1.931-2.663-3.245
		c-0.38-0.801-0.643-1.789-0.589-2.672c0.032-0.535,0.471-0.781,0.78-1.168c0.326-0.404,0.599-0.854,0.834-1.316
		c0.683-1.329,0.906-2.762,1.426-4.136c0.801,0.979,1.318-1.031,1.462-1.535c0.326-1.146,1.556-4.258,0.433-4.619
		c-0.166-0.053-0.313,0.005-0.423,0.133c0.021-0.274,0.337-1.855,0.524-2.872c0.097-0.539,0.162-1.083,0.162-1.632
		c0.002-0.262,0.011-0.525,0.021-0.788c0.002-0.05-0.447-3.201-0.999-4.404c-0.458-1.003-1.079-2.076-2.069-2.648
		c-1.078-0.625-2.357-0.94-3.537-1.314c-1.834-0.582-3.754-1.39-5.715-1.226c-0.922,0.078-1.679,0.514-2.555,0.735
		c-0.563,0.143-1.127-0.05-1.693,0.062c-0.576,0.113-0.828,0.509-1.084,0.991c-0.131,0.244-0.119,0.53-0.244,0.771
		c-0.161,0.312-0.592,0.237-0.875,0.298c-0.787,0.167-1.108,0.87-1.465,1.509c-0.773,1.39-1.215,4.85-1.211,4.933
		c0.017,0.282,0.005,1.664,0.035,2.068c0,1.146,0.186,2.335,0.575,3.488c-1.078-0.194-0.614,1.825-0.496,2.291
		c0.143,0.562,0.856,4.765,1.806,3.871c0.388,1.218,0.638,2.449,1.179,3.621c0.365,0.795,0.822,1.582,1.46,2.193
		c0.698,0.672,0.219,1.941,0.021,2.752c-0.283,1.15-0.853,2.201-1.703,3.035c-1.115,1.092-2.558,1.555-3.945,2.172
		c-1.828,0.811-3.794,1.65-5.409,2.846c-0.389,0.287-0.86,1.804-0.69,1.92c0.75,0.521,1.546,0.978,2.37,1.369
		c3.909,1.863,8.358,2.408,12.639,2.584c2.407,0.097,1.604-0.055,1.604-0.055C32.142,50.674,31.633,50.463,31.258,50.088z
		 M55.254,39.096c-0.377-0.377-1.297-0.753-2.045-0.836l-3.438-0.382c-0.748-0.083-1.672,0.384-2.045,1.037l-2.054,2.917h-1.368
		L43.621,43.2h-0.684l-0.685,0.685h-0.687L40.885,43.2h-2.053l-0.684,0.685h-1.369L36.096,43.2h-0.685l-0.685,0.685h-0.685
		L33.357,43.2h-0.685l-2.735,2.737l2.735,2.736H43.62l0.685,1.368h1.368l2.054,2.917c0.373,0.652,1.297,1.12,2.045,1.037
		l3.438-0.382c0.748-0.083,1.668-0.459,2.045-0.837c0.375-0.375,0.684-1.299,0.684-2.053v-9.578
		C55.938,40.396,55.629,39.473,55.254,39.096z M53.201,49.7c0,0.567-0.461,1.026-1.027,1.026s-1.025-0.459-1.025-1.026v-7.525
		c0-0.567,0.459-1.026,1.025-1.026s1.027,0.459,1.027,1.026V49.7z"/>
	<path fill="#FFFFFF" d="M55.254,39.096c-0.377-0.377-1.297-0.753-2.045-0.836l-3.438-0.382c-0.748-0.083-1.672,0.384-2.045,1.037
		l-2.054,2.917h-1.368L43.621,43.2h-0.684l-0.685,0.685h-0.687L40.885,43.2h-2.053l-0.684,0.685h-1.369L36.096,43.2h-0.685
		l-0.685,0.685h-0.685L33.357,43.2h-0.685l-2.735,2.737l0.5,0.5l2.235-2.237h0.685l0.685,0.685h0.685l0.685-0.685h0.685l0.684,0.685
		h1.369l0.684-0.685h2.053l0.682,0.685h0.687l0.685-0.685h0.684l0.684-1.368h1.368l2.054-2.917c0.373-0.653,1.297-1.12,2.045-1.037
		l3.438,0.382c0.748,0.083,1.668,0.459,2.045,0.836c0.375,0.377,0.684,1.301,0.684,2.051v-1
		C55.938,40.396,55.629,39.473,55.254,39.096z M44.389,21.971c-0.081-0.026-0.157-0.024-0.228-0.001
		c-0.103,0.546-0.186,1-0.195,1.134c0.11-0.128,0.257-0.186,0.423-0.133c0.226,0.073,0.354,0.26,0.415,0.517
		C44.912,22.736,44.851,22.12,44.389,21.971z M40.043,37.417c-0.263-0.555-0.462-1.199-0.546-1.836
		c-0.015,0.055-0.039,0.103-0.043,0.164c-0.054,0.883,0.209,1.871,0.589,2.672c0.544,1.144,1.292,2.132,2.237,2.901
		c0.021-0.007,0.038-0.02,0.059-0.026l0.177-0.354c0.051-0.103,0.124-0.187,0.19-0.276C41.547,39.861,40.668,38.731,40.043,37.417z
		 M52.174,50.727c-0.566,0-1.025-0.459-1.025-1.026v1c0,0.567,0.459,1.026,1.025,1.026s1.027-0.459,1.027-1.026v-1
		C53.201,50.268,52.74,50.727,52.174,50.727z M24.438,12.586c0.357-0.639,0.678-1.342,1.465-1.509
		c0.283-0.061,0.713,0.014,0.875-0.298c0.125-0.241,0.113-0.527,0.244-0.771c0.256-0.482,0.508-0.878,1.084-0.991
		c0.566-0.112,1.131,0.081,1.693-0.062c0.876-0.221,1.633-0.657,2.555-0.735c1.961-0.164,3.881,0.644,5.715,1.226
		c1.18,0.374,2.459,0.689,3.537,1.314c0.99,0.572,1.611,1.646,2.069,2.648c0.478,1.042,0.878,3.54,0.976,4.225
		c0-0.011,0.002-0.022,0.002-0.033c0.002-0.262,0.011-0.525,0.021-0.788c0.002-0.05-0.447-3.201-0.999-4.404
		c-0.458-1.003-1.079-2.076-2.069-2.648c-1.078-0.625-2.357-0.94-3.537-1.314c-1.834-0.582-3.754-1.39-5.715-1.226
		c-0.922,0.078-1.679,0.514-2.555,0.735c-0.563,0.143-1.127-0.05-1.693,0.062c-0.576,0.113-0.828,0.509-1.084,0.991
		c-0.131,0.244-0.119,0.53-0.244,0.771c-0.161,0.312-0.592,0.237-0.875,0.298c-0.787,0.167-1.108,0.87-1.465,1.509
		c-0.773,1.39-1.215,4.85-1.211,4.933c0.008,0.129,0.009,0.491,0.012,0.882C23.311,16.793,23.738,13.845,24.438,12.586z
		 M31.258,50.088l-2.735-2.736c-0.262-0.262-0.428-0.58-0.514-0.914c-0.171,0.663-0.005,1.395,0.514,1.914l2.367,2.367
		c0.06,0.003,0.119,0.008,0.179,0.01c2.407,0.097,1.604-0.055,1.604-0.055C32.142,50.674,31.633,50.463,31.258,50.088z
		 M28.095,35.604c-0.074,0.429-0.205,0.854-0.289,1.198c-0.283,1.15-0.853,2.201-1.703,3.035c-1.115,1.092-2.558,1.555-3.945,2.172
		c-1.828,0.811-3.794,1.65-5.409,2.846c-0.389,0.287-0.86,1.804-0.69,1.92c0.045,0.031,0.095,0.058,0.141,0.089
		c0.145-0.425,0.356-0.867,0.549-1.009c1.615-1.195,3.581-2.035,5.409-2.846c1.388-0.617,2.831-1.08,3.945-2.172
		c0.851-0.834,1.42-1.885,1.703-3.035C27.959,37.181,28.272,36.29,28.095,35.604z M23.837,23.075
		c-0.109-0.325-0.199-0.652-0.276-0.98c-0.451,0.128-0.459,0.847-0.374,1.467C23.262,23.229,23.446,23.005,23.837,23.075z"/>
</g>
<g id="DO_NOT_EDIT_-_FOCAL_ZONE_GUIDES">
</g>
</svg>
