<?xml version="1.0" encoding="utf-8"?>
<!-- Generator: Adobe Illustrator 14.0.0, SVG Export Plug-In  -->
<!DOCTYPE svg PUBLIC "-//W3C//DTD SVG 1.1//EN" "http://www.w3.org/Graphics/SVG/1.1/DTD/svg11.dtd" [
	<!ENTITY ns_flows "http://ns.adobe.com/Flows/1.0/">
]>
<svg version="1.1"
	 xmlns="http://www.w3.org/2000/svg" xmlns:xlink="http://www.w3.org/1999/xlink" xmlns:a="http://ns.adobe.com/AdobeSVGViewerExtensions/3.0/"
	 x="0px" y="0px" width="67px" height="57px" viewBox="0 0 67 57" enable-background="new 0 0 67 57" xml:space="preserve">
<defs>
</defs>
<rect fill="none" width="67" height="57"/>
<path fill-opacity="0.1" d="M33,51c-12.683,0-23-10.318-23-23C10,15.318,20.317,5,33,5s23,10.318,23,23C56,40.682,45.683,51,33,51
	L33,51z M25.146,44.629c0.125-0.002,0.208-0.025,0.297-0.068c0.102-0.05,0.146-0.093,0.151-0.104
	c0.009-0.021,0.01-0.104,0.011-0.146c0.006-0.162,0.012-0.299,0.054-0.467c0.044-0.177,0.044-0.412,0.044-0.64
	c-0.005-0.29-0.011-0.567,0.055-0.821c0.07-0.246,0.161-0.443,0.261-0.648c0.067-0.141,0.141-0.289,0.197-0.457l0.111-0.327
	c0.243-0.755,0.584-1.813,1.219-2.441c0.224-0.231,0.52-0.396,0.758-0.527c0.436-0.247,0.713-0.421,0.845-0.818
	c0.064-0.196,0.067-0.419,0.07-0.657c0-0.293,0-0.637,0.153-0.98c0.065-0.17,0.162-0.383,0.26-0.597l0.07-0.153
	c0.689-1.502,1.049-2.47-0.116-3.527c-0.287-0.264-0.697-0.502-1.258-0.734c-0.819-0.339-1.824-0.585-2.559-0.766
	c0,0-0.63-0.16-0.782-0.203c-0.281-0.076-0.591-0.115-0.909-0.115c-0.929,0-1.801,0.345-2.275,0.9
	c-0.351,0.41-0.479,0.922-0.382,1.518c0.128,0.83,0.71,1.307,1.383,1.857c0.678,0.555,1.351,1.106,1.62,2.02
	c0.35,1.175,0.134,2.394-0.057,3.469c-0.05,0.291-0.092,0.526-0.123,0.752c-0.164,1.086,0.076,2.597,0.235,3.597
	c0.065,0.413,0.202,0.753,0.378,0.947L25.146,44.629z M40.771,35.077c0.167,0.468,0.382,0.692,0.65,0.692
	c0.608,0,1.768-1.035,2.581-2.707c0.009-0.018,0.019-0.035,0.028-0.053c0.463-1.053,0.961-1.538,1.443-2.008l0.068-0.068
	c0.158-0.158,0.32-0.318,0.481-0.499c1.223-1.371,1.598-2.366,1.604-4.255l0.008-0.406c0.018-0.564,0.023-0.751-0.327-1.112
	c-0.266-0.271-0.678-0.447-1.076-0.618c-0.436-0.181-0.982-0.408-1.392-0.842c-0.924-0.965-1.119-2.355-1.153-3.097
	c-0.045-0.96,0.092-1.534,0.443-1.86c0.104-0.097,0.229-0.171,0.365-0.216c0.102-0.034,0.243-0.055,0.351-0.055
	c0.461,0,0.972,0.147,1.709,0.493c0.118,0.05,0.26,0.119,0.4,0.187l0.339,0.163c0.323,0.156,0.648,0.315,1.006,0.447
	c0.135,0.046,0.307,0.101,0.489,0.155c0.19,0.059,0.385,0.118,0.574,0.184c-1.942-3.781-5.093-6.756-8.979-8.463
	c-0.104,0.105-0.214,0.331-0.33,0.569c-0.178,0.383-0.345,0.704-0.672,0.893c-0.121,0.07-0.256,0.114-0.396,0.129
	c-0.924,0.098-1.11,0.255-1.139,0.286h0.001c0.046,0,0.251,0.293,1.6,0.923c0.306,0.145,0.579,0.232,0.82,0.312
	c1.047,0.329,1.528,0.618,1.733,1.951c0.115,0.771,0.006,1.339-0.335,1.741c-0.481,0.555-1.292,0.618-1.86,0.618
	c-0.436,0-0.913-0.043-1.395-0.089l-1.157-0.1c-0.211-0.019-0.401-0.038-0.581-0.038c-0.492,0-0.9,0.109-1.525,0.668
	c-0.934,0.843-1.529,1.706-1.55,2.249c-0.047,1.333,0.802,1.851,2.204,2.544c0.646,0.318,1.195,0.588,1.641,0.979
	c0.39,0.357,0.626,0.841,0.855,1.307c0.157,0.33,0.284,0.598,0.433,0.799c0.332,0.478,0.57,0.798,1.003,1.126
	c0.163,0.121,0.354,0.208,0.552,0.293c0.466,0.209,0.98,0.44,1.194,1.125c0.253,0.813-0.134,1.818-0.444,2.627
	c-0.071,0.183-0.126,0.328-0.169,0.452c-0.293,0.849-0.206,1.623-0.113,2.442L40.771,35.077z M14.929,29.053
	c0.655,0.401,0.908,0.557,1.567,0.557c0.18,0,0.39-0.011,0.634-0.034c0.588-0.06,1.938-0.194,1.992-0.727
	c0.048-0.485-0.688-1.138-1.336-1.714c-1.027-0.914-1.63-1.513-1.518-2.279c0.048-0.459,0.433-0.883,1.172-1.256
	c0.624-0.305,1.265-0.41,1.885-0.512c0.742-0.116,1.5-0.234,2.126-0.724c0.709-0.552,1.234-1.206,1.79-1.898
	c0.951-1.189,1.91-2.389,3.703-2.846c0.225-0.052,0.616-0.104,1.109-0.161c1.144-0.142,3.541-0.44,3.994-1.097
	c0.06-0.086,0.073-0.16,0.049-0.257c-0.144-0.345-1.784-1.05-5.095-1.195l-0.158,0c-0.7,0-1.347,0.149-2.03,0.308l-0.176,0.042
	c-0.22,0.052-0.441,0.104-0.67,0.148c-0.533,0.109-1.082,0.167-1.577,0.167c-0.998,0-1.789-0.225-2.315-0.653
	C16.537,18.41,14.59,23.043,14.59,28c0,0.27,0.015,0.532,0.033,0.795l0.006,0.09L14.929,29.053z"/>
<path opacity="0.3" d="M33,7c-12.133,0-22,9.871-22,22c0,12.133,9.867,22,22,22c12.129,0,22-9.867,22-22C55,16.871,45.129,7,33,7
	 M17.227,31.57c-0.281,0.027-0.523,0.039-0.73,0.039c-0.945,0-1.387-0.273-2.055-0.684l-0.371-0.207
	c-0.242-0.09-0.41-0.313-0.426-0.57l-0.02-0.285c-0.02-0.285-0.035-0.57-0.035-0.863c0-5.34,2.145-10.328,6.039-14.039
	c0.121-0.113,0.281-0.176,0.445-0.176h0.039c0.176,0.008,0.344,0.094,0.457,0.227c0.305,0.363,0.953,0.563,1.82,0.563
	c0.438,0,0.926-0.055,1.387-0.148c0.262-0.051,0.516-0.113,0.766-0.172c0.727-0.168,1.469-0.344,2.301-0.344h0.168
	c0.23,0.012,5.625,0.195,6.055,1.953c0.094,0.375,0.027,0.746-0.195,1.066c-0.656,0.953-2.598,1.262-4.703,1.523
	c-0.441,0.051-0.793,0.094-0.977,0.137c-1.473,0.375-2.25,1.352-3.152,2.48c-0.574,0.715-1.164,1.453-1.973,2.082
	c-0.82,0.641-1.754,0.793-2.578,0.922c-0.57,0.094-1.117,0.184-1.598,0.418c-0.48,0.242-0.625,0.434-0.633,0.508
	c-0.043,0.293,0.73,0.977,1.191,1.387c0.867,0.77,1.766,1.566,1.668,2.563C19.98,31.301,18.199,31.473,17.227,31.57 M30.613,36.188
	c-0.113,0.25-0.23,0.496-0.328,0.746c-0.066,0.148-0.066,0.352-0.066,0.582c-0.004,0.289-0.008,0.617-0.121,0.961
	c-0.258,0.781-0.84,1.113-1.309,1.379c-0.211,0.117-0.41,0.23-0.539,0.363c-0.453,0.449-0.746,1.34-0.977,2.055l-0.109,0.32
	c-0.07,0.211-0.16,0.398-0.246,0.578c-0.074,0.152-0.145,0.297-0.191,0.461c-0.031,0.121-0.027,0.328-0.023,0.531
	c0,0.289,0.004,0.613-0.074,0.922c-0.02,0.078-0.02,0.148-0.023,0.238c-0.004,0.277-0.016,0.789-0.727,1.137
	c-0.234,0.113-0.473,0.172-0.711,0.172c-0.027,0-0.156-0.008-0.184-0.012c-0.066-0.008-0.133-0.023-0.195-0.055l-0.43-0.207
	c-0.055-0.031-0.105-0.066-0.152-0.105c-0.48-0.457-0.652-1.16-0.715-1.555c-0.18-1.129-0.422-2.68-0.238-3.891
	c0.035-0.254,0.082-0.52,0.129-0.789c0.18-1.016,0.363-2.066,0.082-3.012c-0.184-0.621-0.691-1.035-1.277-1.516
	c-0.73-0.598-1.566-1.273-1.754-2.484c-0.145-0.887,0.066-1.691,0.609-2.328c0.668-0.781,1.801-1.25,3.035-1.25
	c0.406,0,0.801,0.051,1.18,0.152c0.223,0.063,0.48,0.125,0.75,0.195c0.813,0.199,1.824,0.449,2.703,0.813
	c0.66,0.273,1.168,0.57,1.547,0.918C32.027,33.113,31.242,34.816,30.613,36.188 M50.137,22.035c-0.152,0-0.301-0.051-0.422-0.152
	c-0.242-0.215-0.777-0.375-1.211-0.508c-0.195-0.059-0.379-0.117-0.551-0.176c-0.441-0.164-0.84-0.363-1.238-0.555
	c-0.191-0.09-0.383-0.188-0.582-0.273c-0.559-0.262-0.969-0.398-1.285-0.398c-0.012,0-0.023,0-0.035,0.004
	c0,0-0.168,0.156-0.125,1.082c0.027,0.598,0.176,1.719,0.883,2.457c0.25,0.266,0.637,0.434,1.051,0.605
	c0.465,0.199,0.996,0.426,1.406,0.844c0.645,0.664,0.629,1.203,0.609,1.828l-0.008,0.391c-0.008,2.129-0.48,3.371-1.859,4.918
	c-0.199,0.223-0.398,0.418-0.594,0.613c-0.449,0.438-0.844,0.82-1.215,1.672c-0.027,0.055-0.055,0.109-0.059,0.113
	c-0.766,1.574-2.176,3.27-3.48,3.27c-0.43,0-1.207-0.184-1.613-1.418c-0.016-0.043-0.023-0.09-0.027-0.133l-0.02-0.164
	c-0.102-0.902-0.199-1.832,0.164-2.887c0.047-0.133,0.105-0.289,0.168-0.449c0.246-0.641,0.586-1.512,0.434-2
	c-0.074-0.238-0.219-0.316-0.637-0.504c-0.234-0.102-0.5-0.223-0.758-0.414c-0.547-0.414-0.848-0.816-1.203-1.328
	c-0.211-0.285-0.367-0.617-0.52-0.938c-0.191-0.391-0.387-0.793-0.625-1.012c-0.355-0.313-0.863-0.559-1.402-0.824
	c-1.266-0.625-2.855-1.398-2.781-3.488c0.043-1.141,1.199-2.34,1.883-2.957c0.73-0.652,1.367-0.922,2.191-0.922
	c0.262,0,0.543,0.031,0.867,0.059l0.953,0.082c0.453,0.043,0.902,0.086,1.313,0.086c0.574,0,0.945-0.09,1.098-0.266
	c0.176-0.207,0.156-0.629,0.109-0.941c-0.133-0.863-0.273-0.906-0.973-1.125c-0.297-0.098-0.637-0.203-1.016-0.383
	c-1.422-0.664-2.273-1.238-2.145-2.035c0.133-0.773,1.082-0.977,2-1.074c0.074-0.043,0.199-0.305,0.273-0.465
	c0.145-0.297,0.309-0.633,0.605-0.914l0.16-0.129c0.113-0.098,0.258-0.145,0.402-0.145c0.09,0,0.172,0.016,0.258,0.051
	c4.531,1.93,8.133,5.48,10.145,9.996c0.125,0.273,0.043,0.602-0.203,0.781C50.406,21.992,50.273,22.035,50.137,22.035"/>
<linearGradient id="SVGID_1_" gradientUnits="userSpaceOnUse" x1="33.0005" y1="50" x2="33.0005" y2="6.0005">
	<stop  offset="0" style="stop-color:#D0CBC5"/>
	<stop  offset="0.5031" style="stop-color:#FAFCEF"/>
	<stop  offset="0.9693" style="stop-color:#FFFFFF"/>
</linearGradient>
<path fill="url(#SVGID_1_)" d="M33,6c-12.133,0-22,9.871-22,22c0,12.133,9.867,22,22,22c12.129,0,22-9.867,22-22
	C55,15.871,45.129,6,33,6 M17.227,30.57c-0.281,0.027-0.523,0.039-0.73,0.039c-0.945,0-1.387-0.273-2.055-0.684l-0.371-0.207
	c-0.242-0.09-0.41-0.313-0.426-0.57l-0.02-0.285c-0.02-0.285-0.035-0.57-0.035-0.863c0-5.34,2.145-10.328,6.039-14.039
	c0.121-0.113,0.281-0.176,0.445-0.176h0.039c0.176,0.008,0.344,0.094,0.457,0.227c0.305,0.363,0.953,0.563,1.82,0.563
	c0.438,0,0.926-0.055,1.387-0.148c0.262-0.051,0.516-0.113,0.766-0.172c0.727-0.168,1.469-0.344,2.301-0.344h0.168
	c0.23,0.012,5.625,0.195,6.055,1.953c0.094,0.375,0.027,0.746-0.195,1.066c-0.656,0.953-2.598,1.262-4.703,1.523
	c-0.441,0.051-0.793,0.094-0.977,0.137c-1.473,0.375-2.25,1.352-3.152,2.48c-0.574,0.715-1.164,1.453-1.973,2.082
	c-0.82,0.641-1.754,0.793-2.578,0.922c-0.57,0.094-1.117,0.184-1.598,0.418c-0.48,0.242-0.625,0.434-0.633,0.508
	c-0.043,0.293,0.73,0.977,1.191,1.387c0.867,0.77,1.766,1.566,1.668,2.563C19.98,30.301,18.199,30.473,17.227,30.57 M30.613,35.188
	c-0.113,0.25-0.23,0.496-0.328,0.746c-0.066,0.148-0.066,0.352-0.066,0.582c-0.004,0.289-0.008,0.617-0.121,0.961
	c-0.258,0.781-0.84,1.113-1.309,1.379c-0.211,0.117-0.41,0.23-0.539,0.363c-0.453,0.449-0.746,1.34-0.977,2.055l-0.109,0.32
	c-0.07,0.211-0.16,0.398-0.246,0.578c-0.074,0.152-0.145,0.297-0.191,0.461c-0.031,0.121-0.027,0.328-0.023,0.531
	c0,0.289,0.004,0.613-0.074,0.922c-0.02,0.078-0.02,0.148-0.023,0.238c-0.004,0.277-0.016,0.789-0.727,1.137
	c-0.234,0.113-0.473,0.172-0.711,0.172c-0.027,0-0.156-0.008-0.184-0.012c-0.066-0.008-0.133-0.023-0.195-0.055l-0.43-0.207
	c-0.055-0.031-0.105-0.066-0.152-0.105c-0.48-0.457-0.652-1.16-0.715-1.555c-0.18-1.129-0.422-2.68-0.238-3.891
	c0.035-0.254,0.082-0.52,0.129-0.789c0.18-1.016,0.363-2.066,0.082-3.012c-0.184-0.621-0.691-1.035-1.277-1.516
	c-0.73-0.598-1.566-1.273-1.754-2.484c-0.145-0.887,0.066-1.691,0.609-2.328c0.668-0.781,1.801-1.25,3.035-1.25
	c0.406,0,0.801,0.051,1.18,0.152c0.223,0.063,0.48,0.125,0.75,0.195c0.813,0.199,1.824,0.449,2.703,0.813
	c0.66,0.273,1.168,0.57,1.547,0.918C32.027,32.113,31.242,33.816,30.613,35.188 M50.137,21.035c-0.152,0-0.301-0.051-0.422-0.152
	c-0.242-0.215-0.777-0.375-1.211-0.508c-0.195-0.059-0.379-0.117-0.551-0.176c-0.441-0.164-0.84-0.363-1.238-0.555
	c-0.191-0.09-0.383-0.188-0.582-0.273c-0.559-0.262-0.969-0.398-1.285-0.398c-0.012,0-0.023,0-0.035,0.004
	c0,0-0.168,0.156-0.125,1.082c0.027,0.598,0.176,1.719,0.883,2.457c0.25,0.266,0.637,0.434,1.051,0.605
	c0.465,0.199,0.996,0.426,1.406,0.844c0.645,0.664,0.629,1.203,0.609,1.828l-0.008,0.391c-0.008,2.129-0.48,3.371-1.859,4.918
	c-0.199,0.223-0.398,0.418-0.594,0.613c-0.449,0.438-0.844,0.82-1.215,1.672c-0.027,0.055-0.055,0.109-0.059,0.113
	c-0.766,1.574-2.176,3.27-3.48,3.27c-0.43,0-1.207-0.184-1.613-1.418c-0.016-0.043-0.023-0.09-0.027-0.133l-0.02-0.164
	c-0.102-0.902-0.199-1.832,0.164-2.887c0.047-0.133,0.105-0.289,0.168-0.449c0.246-0.641,0.586-1.512,0.434-2
	c-0.074-0.238-0.219-0.316-0.637-0.504c-0.234-0.102-0.5-0.223-0.758-0.414c-0.547-0.414-0.848-0.816-1.203-1.328
	c-0.211-0.285-0.367-0.617-0.52-0.938c-0.191-0.391-0.387-0.793-0.625-1.012c-0.355-0.313-0.863-0.559-1.402-0.824
	c-1.266-0.625-2.855-1.398-2.781-3.488c0.043-1.141,1.199-2.34,1.883-2.957c0.73-0.652,1.367-0.922,2.191-0.922
	c0.262,0,0.543,0.031,0.867,0.059l0.953,0.082c0.453,0.043,0.902,0.086,1.313,0.086c0.574,0,0.945-0.09,1.098-0.266
	c0.176-0.207,0.156-0.629,0.109-0.941c-0.133-0.863-0.273-0.906-0.973-1.125c-0.297-0.098-0.637-0.203-1.016-0.383
	c-1.422-0.664-2.273-1.238-2.145-2.035c0.133-0.773,1.082-0.977,2-1.074c0.074-0.043,0.199-0.305,0.273-0.465
	c0.145-0.297,0.309-0.633,0.605-0.914l0.16-0.129c0.113-0.098,0.258-0.145,0.402-0.145c0.09,0,0.172,0.016,0.258,0.051
	c4.531,1.93,8.133,5.48,10.145,9.996c0.125,0.273,0.043,0.602-0.203,0.781C50.406,20.992,50.273,21.035,50.137,21.035"/>
<path fill="#FFFFFF" d="M30.613,35.188c-0.113,0.25-0.23,0.496-0.328,0.746c-0.066,0.148-0.066,0.352-0.066,0.582
	c-0.004,0.289-0.008,0.617-0.121,0.961c-0.258,0.781-0.84,1.113-1.309,1.379c-0.211,0.117-0.41,0.23-0.539,0.363
	c-0.453,0.449-0.746,1.34-0.977,2.055l-0.109,0.32c-0.07,0.211-0.16,0.398-0.246,0.578c-0.074,0.152-0.145,0.297-0.191,0.461
	c-0.031,0.121-0.027,0.328-0.023,0.531c0,0.289,0.004,0.613-0.074,0.922c-0.02,0.078-0.02,0.148-0.023,0.238
	c-0.004,0.277-0.016,0.789-0.727,1.137c-0.234,0.113-0.473,0.172-0.711,0.172c-0.027,0-0.156-0.008-0.184-0.012
	c-0.066-0.008-0.133-0.023-0.195-0.055l-0.43-0.207c-0.055-0.031-0.105-0.066-0.152-0.105c-0.48-0.457-0.652-1.16-0.715-1.555
	c-0.108-0.684-0.229-1.519-0.275-2.342c-0.063,1.107,0.121,2.374,0.275,3.342c0.063,0.395,0.234,1.098,0.715,1.555
	c0.047,0.039,0.098,0.074,0.152,0.105l0.43,0.207c0.063,0.031,0.129,0.047,0.195,0.055c0.027,0.004,0.156,0.012,0.184,0.012
	c0.238,0,0.477-0.059,0.711-0.172c0.711-0.348,0.723-0.859,0.727-1.137c0.004-0.09,0.004-0.16,0.023-0.238
	c0.078-0.309,0.074-0.633,0.074-0.922c-0.004-0.203-0.008-0.41,0.023-0.531c0.047-0.164,0.117-0.309,0.191-0.461
	c0.086-0.18,0.176-0.367,0.246-0.578l0.109-0.32c0.23-0.715,0.523-1.605,0.977-2.055c0.129-0.133,0.328-0.246,0.539-0.363
	c0.469-0.266,1.051-0.598,1.309-1.379c0.113-0.344,0.117-0.672,0.121-0.961c0-0.23,0-0.434,0.066-0.582
	c0.098-0.25,0.215-0.496,0.328-0.746c0.403-0.879,0.867-1.895,0.684-2.934C31.187,33.938,30.886,34.594,30.613,35.188z
	 M23.579,37.643c0.049-0.561,0.04-1.114-0.114-1.635c-0.184-0.621-0.691-1.035-1.277-1.516c-0.726-0.594-1.553-1.266-1.748-2.46
	c-0.049,0.312-0.062,0.635-0.006,0.976c0.188,1.211,1.023,1.887,1.754,2.484c0.586,0.48,1.094,0.895,1.277,1.516
	C23.526,37.214,23.558,37.428,23.579,37.643z M33.066,16.863c-0.014-0.057-0.047-0.107-0.07-0.16
	c-0.034,0.078-0.074,0.154-0.125,0.227c-0.656,0.953-2.598,1.262-4.703,1.523c-0.441,0.051-0.793,0.094-0.977,0.137
	c-1.473,0.375-2.25,1.352-3.152,2.48c-0.574,0.715-1.164,1.453-1.973,2.082c-0.82,0.641-1.754,0.793-2.578,0.922
	c-0.57,0.094-1.117,0.184-1.598,0.418c-0.48,0.242-0.625,0.434-0.633,0.508c-0.021,0.143,0.153,0.379,0.39,0.631
	c0.071-0.045,0.146-0.09,0.243-0.139c0.48-0.234,1.027-0.324,1.598-0.418c0.824-0.129,1.758-0.281,2.578-0.922
	c0.809-0.629,1.398-1.367,1.973-2.082c0.902-1.129,1.68-2.105,3.152-2.48c0.184-0.043,0.535-0.086,0.977-0.137
	c2.105-0.262,4.047-0.57,4.703-1.523C33.094,17.609,33.16,17.238,33.066,16.863z M33,6c-12.133,0-22,9.871-22,22
	c0,0.168,0.009,0.333,0.013,0.5C11.28,16.602,21.035,7,33,7c11.961,0,21.72,9.602,21.987,21.5C54.991,28.333,55,28.168,55,28
	C55,15.871,45.129,6,33,6z M17.227,30.57c-0.281,0.027-0.523,0.039-0.73,0.039c-0.945,0-1.387-0.273-2.055-0.684l-0.371-0.207
	c-0.242-0.09-0.41-0.313-0.426-0.57l-0.02-0.285c-0.007-0.103-0.007-0.208-0.013-0.311C13.609,28.702,13.59,28.85,13.59,29
	c0,0.293,0.016,0.578,0.035,0.863l0.02,0.285c0.016,0.258,0.184,0.48,0.426,0.57l0.371,0.207c0.668,0.41,1.109,0.684,2.055,0.684
	c0.207,0,0.449-0.012,0.73-0.039c0.973-0.098,2.754-0.27,2.891-1.621c0.023-0.236-0.014-0.46-0.088-0.676
	C19.655,30.32,18.112,30.481,17.227,30.57z M46.77,31.102c-0.199,0.223-0.398,0.418-0.594,0.613
	c-0.449,0.438-0.844,0.82-1.215,1.672c-0.027,0.055-0.055,0.109-0.059,0.113c-0.766,1.574-2.176,3.27-3.48,3.27
	c-0.43,0-1.207-0.184-1.613-1.418c-0.016-0.043-0.023-0.09-0.027-0.133l-0.02-0.164c-0.025-0.223-0.05-0.447-0.067-0.674
	c-0.04,0.58,0.007,1.134,0.067,1.674l0.02,0.164c0.004,0.043,0.012,0.09,0.027,0.133c0.406,1.234,1.184,1.418,1.613,1.418
	c1.305,0,2.715-1.695,3.48-3.27c0.004-0.004,0.031-0.059,0.059-0.113c0.371-0.852,0.766-1.234,1.215-1.672
	c0.195-0.195,0.395-0.391,0.594-0.613c1.379-1.547,1.852-2.789,1.859-4.918l0.008-0.391c0.006-0.207,0.01-0.405-0.008-0.602
	C48.619,28.315,48.146,29.557,46.77,31.102z M50.584,20.847c-0.021,0.021-0.036,0.045-0.061,0.063
	c-0.117,0.082-0.25,0.125-0.387,0.125c-0.152,0-0.301-0.051-0.422-0.152c-0.242-0.215-0.777-0.375-1.211-0.508
	c-0.195-0.059-0.379-0.117-0.551-0.176c-0.441-0.164-0.84-0.363-1.238-0.555c-0.191-0.09-0.383-0.188-0.582-0.273
	c-0.559-0.262-0.969-0.398-1.285-0.398c-0.012,0-0.023,0-0.035,0.004c0,0-0.168,0.156-0.125,1.082
	c0.003,0.067,0.016,0.161,0.022,0.24c0.039-0.262,0.103-0.322,0.103-0.322c0.012-0.004,0.023-0.004,0.035-0.004
	c0.316,0,0.727,0.137,1.285,0.398c0.199,0.086,0.391,0.184,0.582,0.273c0.398,0.191,0.797,0.391,1.238,0.555
	c0.172,0.059,0.355,0.117,0.551,0.176c0.434,0.133,0.969,0.293,1.211,0.508c0.121,0.102,0.27,0.152,0.422,0.152
	c0.137,0,0.27-0.043,0.387-0.125c0.246-0.18,0.328-0.508,0.203-0.781C50.684,21.032,50.629,20.942,50.584,20.847z M40.043,16.227
	c0.638,0.2,0.811,0.26,0.937,0.923c0.089-0.224,0.074-0.544,0.036-0.798c-0.133-0.863-0.273-0.906-0.973-1.125
	c-0.297-0.098-0.637-0.203-1.016-0.383c-1-0.467-1.709-0.892-2.002-1.378c-0.066,0.101-0.12,0.211-0.143,0.343
	c-0.129,0.797,0.723,1.371,2.145,2.035C39.406,16.023,39.746,16.129,40.043,16.227z M40.472,30.601
	c0.085-0.335,0.128-0.652,0.056-0.882c-0.074-0.238-0.219-0.316-0.637-0.504c-0.234-0.102-0.5-0.223-0.758-0.414
	c-0.547-0.414-0.848-0.816-1.203-1.328c-0.211-0.285-0.367-0.617-0.52-0.938c-0.191-0.391-0.387-0.793-0.625-1.012
	c-0.355-0.313-0.863-0.559-1.402-0.824c-1.111-0.549-2.473-1.215-2.736-2.784c-0.02,0.099-0.041,0.197-0.045,0.296
	c-0.074,2.09,1.516,2.863,2.781,3.488c0.539,0.266,1.047,0.512,1.402,0.824c0.238,0.219,0.434,0.621,0.625,1.012
	c0.152,0.32,0.309,0.652,0.52,0.938c0.355,0.512,0.656,0.914,1.203,1.328c0.258,0.191,0.523,0.313,0.758,0.414
	C40.228,30.366,40.384,30.45,40.472,30.601z"/>
</svg>
