<?xml version="1.0" encoding="utf-8"?>
<!-- Generator: Adobe Illustrator 15.0.2, SVG Export Plug-In . SVG Version: 6.00 Build 0)  -->
<!DOCTYPE svg PUBLIC "-//W3C//DTD SVG 1.1//EN" "http://www.w3.org/Graphics/SVG/1.1/DTD/svg11.dtd">
<svg version="1.1" xmlns="http://www.w3.org/2000/svg" xmlns:xlink="http://www.w3.org/1999/xlink" x="0px" y="0px" width="67px"
	 height="57px" viewBox="0 0 67 57" enable-background="new 0 0 67 57" xml:space="preserve">
<g id="DO_NOT_EDIT_-_BOUNDING_BOX">
	<rect id="BOUNDING_BOX" fill="none" width="67" height="57"/>
</g>
<g id="PLACE_YOUR_GRAPHIC_HERE">
	<path opacity="0.3" d="M32,48l-8.333-5v3.334c-4.594,0-8.333-3.738-8.333-8.334H12c0,6.433,5.234,11.666,11.667,11.666V53L32,48z
		 M37,10.667l7.777,4.667v-3.111c4.289,0,7.778,3.49,7.778,7.778h3.11c0-6.003-4.885-10.889-10.889-10.889V6L37,10.667z M35,10.667
		c0-0.703,0.368-1.354,0.971-1.715l2.902-1.741C38.607,7.08,38.314,7,38,7H16c-1.1,0-2,0.9-2,2v3h21.521
		C35.194,11.638,35,11.168,35,10.667z M17.333,38c0,0.341,0.029,0.674,0.081,1h8.691V22c0-2.206,1.794-4,4-4H40v-3.201L38.668,14H14
		v22h1.333C16.438,36,17.333,36.896,17.333,38z M28.106,43.331l4.923,2.954C33.631,46.646,34,47.298,34,48s-0.369,1.354-0.971,1.715
		l-3.598,2.159C29.643,51.951,29.868,52,30.106,52h22c1.1,0,2-0.9,2-2V27h-26V43.331z M50.556,20h-20.45c-1.1,0-2,0.9-2,2v3h26v-3
		h-1.551C51.451,22,50.556,21.104,50.556,20z"/>
	<path opacity="0.15" d="M23.667,53c-0.17,0-0.34-0.043-0.493-0.13c-0.313-0.178-0.507-0.51-0.507-0.87v-2.373
		C16.147,49.115,11,43.647,11,37c0-0.553,0.448-1,1-1h2c-0.552,0-1-0.447-1-1V13c0-0.552,0.448-1,1-1c-0.552,0-1-0.448-1-1V8
		c0-1.654,1.346-3,3-3h22c0.449,0,0.891,0.105,1.313,0.313c0.329,0.162,0.543,0.49,0.559,0.856c0.016,0.36-0.164,0.7-0.469,0.89
		l4.859-2.916C44.421,4.047,44.6,4,44.777,4c0.17,0,0.34,0.043,0.493,0.13c0.313,0.177,0.507,0.51,0.507,0.87v2.152
		C51.866,7.662,56.666,12.781,56.666,19c0,0.552-0.447,1-1,1h-1.56c0.553,0,1,0.448,1,1v3c0,0.552-0.447,1-1,1c0.553,0,1,0.448,1,1
		v23c0,1.654-1.346,3-3,3h-22c-0.335,0-0.678-0.063-1.018-0.187c-0.362-0.132-0.616-0.46-0.653-0.844
		c-0.037-0.384,0.15-0.755,0.481-0.953l0.84-0.504l-5.575,3.345C24.023,52.952,23.845,53,23.667,53z M23.667,41
		c0.178,0,0.356,0.048,0.515,0.143l5.555,3.333l-2.145-1.287c-0.301-0.181-0.485-0.506-0.485-0.857V38c0,0.553-0.448,1-1,1h-8.691
		c-0.491,0-0.91-0.356-0.987-0.842c-0.062-0.385-0.093-0.771-0.094-1.148c0.005,3.7,2.764,6.768,6.333,7.256V42
		c0-0.36,0.194-0.692,0.507-0.87C23.327,41.043,23.497,41,23.667,41z M30.106,18c-1.654,0-3,1.346-3,3v5c0-0.552,0.448-1,1-1
		c-0.552,0-1-0.448-1-1v-3C27.106,19.346,28.452,18,30.106,18h20.45c0.553,0,1,0.448,1,1c0-3.397-2.513-6.219-5.778-6.704v2.037
		c0,0.36-0.193,0.693-0.507,0.87c-0.153,0.087-0.323,0.13-0.493,0.13c-0.178,0-0.356-0.047-0.515-0.143l-3.737-2.242
		C40.82,13.13,41,13.452,41,13.799V17c0,0.552-0.447,1-1,1H30.106z M38.668,12c0.182,0,0.359,0.049,0.515,0.143l1.01,0.606
		l-3.707-2.225c-0.06-0.036-0.114-0.077-0.164-0.123c0.216,0.288,0.261,0.673,0.112,1.006C36.273,11.768,35.915,12,35.521,12H38.668
		z"/>
	<linearGradient id="SVGID_1_" gradientUnits="userSpaceOnUse" x1="33.8335" y1="52" x2="33.8335" y2="5.0005">
		<stop  offset="0" style="stop-color:#D0CBC5"/>
		<stop  offset="0.5031" style="stop-color:#FAFCEF"/>
		<stop  offset="0.9693" style="stop-color:#FFFFFF"/>
	</linearGradient>
	<path fill="url(#SVGID_1_)" d="M32,47l-8.333-5v3.334c-4.594,0-8.333-3.738-8.333-8.334H12c0,6.433,5.234,11.666,11.667,11.666V52
		L32,47z M37,9.667l7.777,4.667v-3.111c4.289,0,7.778,3.49,7.778,7.778h3.11c0-6.003-4.885-10.889-10.889-10.889V5L37,9.667z
		 M35,9.667c0-0.703,0.368-1.354,0.971-1.715l2.902-1.741C38.607,6.08,38.314,6,38,6H16c-1.1,0-2,0.9-2,2v3h21.521
		C35.194,10.638,35,10.168,35,9.667z M17.333,37c0,0.341,0.029,0.674,0.081,1h8.691V21c0-2.206,1.794-4,4-4H40v-3.201L38.668,13H14
		v22h1.333C16.438,35,17.333,35.896,17.333,37z M28.106,42.331l4.923,2.954C33.631,45.646,34,46.298,34,47s-0.369,1.354-0.971,1.715
		l-3.598,2.159C29.643,50.951,29.868,51,30.106,51h22c1.1,0,2-0.9,2-2V26h-26V42.331z M50.556,19h-20.45c-1.1,0-2,0.9-2,2v3h26v-3
		h-1.551C51.451,21,50.556,20.104,50.556,19z"/>
	<path fill="#FFFFFF" d="M37.833,10.167L44.777,6V5L37,9.667L37.833,10.167z M16,7h21.557l1.316-0.79C38.607,6.08,38.314,6,38,6H16
		c-1.1,0-2,0.9-2,2v1C14,7.9,14.9,7,16,7z M44.777,8.111v1c5.666,0,10.331,4.353,10.838,9.889h0.051
		C55.666,12.997,50.781,8.111,44.777,8.111z M35.032,11h0.488c-0.218-0.242-0.37-0.535-0.452-0.851
		C35.024,10.315,35,10.489,35,10.667C35,10.78,35.013,10.891,35.032,11z M40,14.799v-1L38.668,13H14v1h24.668L40,14.799z M50.556,19
		h-20.45c-1.1,0-2,0.9-2,2v1c0-1.1,0.9-2,2-2h20.45c0,1.104,0.896,2,2,2h1.551v-1h-1.551C51.451,21,50.556,20.104,50.556,19z
		 M33.029,48.715l-3.598,2.159C29.643,50.951,29.868,51,30.106,51h0.781l2.142-1.285C33.631,49.354,34,48.702,34,48
		c0-0.171-0.023-0.339-0.065-0.5C33.805,48.002,33.484,48.441,33.029,48.715z M28.106,27h26v-1h-26V27z M15.333,37H12
		c0,0.338,0.022,0.67,0.051,1h3.283c0,4.596,3.739,8.334,8.333,8.334v-1C19.072,45.334,15.333,41.596,15.333,37z M32,47l-8.333-5v1
		l7.5,4.5L32,47z"/>
</g>
<g id="DO_NOT_EDIT_-_FOCAL_ZONE_GUIDES">
</g>
</svg>
