<?xml version="1.0" encoding="utf-8"?>
<!-- Generator: Adobe Illustrator 15.0.0, SVG Export Plug-In . SVG Version: 6.00 Build 0)  -->
<!DOCTYPE svg PUBLIC "-//W3C//DTD SVG 1.1//EN" "http://www.w3.org/Graphics/SVG/1.1/DTD/svg11.dtd">
<svg version="1.1" xmlns="http://www.w3.org/2000/svg" xmlns:xlink="http://www.w3.org/1999/xlink" x="0px" y="0px" width="67px"
	 height="57px" viewBox="0 0 67 57" enable-background="new 0 0 67 57" xml:space="preserve">
<g id="DO_NOT_EDIT_-_BOUNDING_BOX">
	<rect id="BOUNDING_BOX" fill="none" width="67" height="57"/>
</g>
<g id="PLACE_YOUR_GRAPHIC_HERE">
	<path opacity="0.3" d="M52.55,9H40.46C38.55,9,37,10.56,37,12.45v12.1c0,1.89,1.55,3.45,3.46,3.45h12.09c1.9,0,3.45-1.56,3.45-3.45
		v-12.1C56,10.56,54.45,9,52.55,9z M53,25H40V12h13V25z M28.55,33H16.46C14.55,33,13,34.561,13,36.45v12.1
		c0,1.89,1.55,3.45,3.46,3.45h12.09c1.9,0,3.45-1.561,3.45-3.45v-12.1C32,34.561,30.45,33,28.55,33z M29,49H16V36h13V49z
		 M14.82,10.428l-0.389,0.377c-5.895,5.912-4.594,9.788,0.176,14.569c4.792,4.803,8.707,6.082,14.574,0.206l0.39-0.375
		c5.906-5.919,4.583-9.807-0.18-14.584C24.603,5.829,20.696,4.54,14.82,10.428z M52.55,33H40.46C38.55,33,37,34.561,37,36.45v12.1
		c0,1.89,1.55,3.45,3.46,3.45h12.09c1.9,0,3.45-1.561,3.45-3.45v-12.1C56,34.561,54.45,33,52.55,33z M53,49H40V36h13V49z"/>
	<path opacity="0.15" d="M40.46,52C38.001,52,36,50.004,36,47.55v-12.1c0-2.454,2.001-4.45,4.46-4.45h12.09
		c2.454,0,4.45,1.996,4.45,4.45v12.1c0,2.454-1.996,4.45-4.45,4.45H40.46z M52,47V36H41v11H52z M16.46,52C14,52,12,50.004,12,47.55
		v-12.1c0-2.454,2-4.45,4.46-4.45h12.09c2.454,0,4.45,1.996,4.45,4.45v12.1c0,2.454-1.997,4.45-4.45,4.45H16.46z M28,47V36H17v11H28
		z M21.969,29.501c-3.244-0.001-6.017-2.363-8.07-4.421c-4.837-4.848-6.718-9.42-0.176-15.981l0.401-0.389
		c2.862-2.868,5.38-4.209,7.912-4.209c2.56,0,4.971,1.32,8.062,4.413c4.842,4.858,6.726,9.437,0.18,15.998L29.874,25.3
		C27.018,28.161,24.501,29.501,21.969,29.501C21.969,29.501,21.969,29.501,21.969,29.501z M40.46,28C38.001,28,36,26.003,36,23.55
		v-12.1C36,8.997,38.001,7,40.46,7h12.09C55.004,7,57,8.997,57,11.45v12.1c0,2.454-1.996,4.45-4.45,4.45H40.46z M52,23V12H41v11H52z
		"/>
	<path opacity="0.15" d="M52.55,8H40.46C38.55,8,37,9.56,37,11.45v12.1c0,1.89,1.55,3.45,3.46,3.45h12.09c1.9,0,3.45-1.56,3.45-3.45
		v-12.1C56,9.56,54.45,8,52.55,8z M53,24H40V11h13V24z M28.55,32H16.46C14.55,32,13,33.561,13,35.45v12.1
		c0,1.89,1.55,3.45,3.46,3.45h12.09c1.9,0,3.45-1.561,3.45-3.45v-12.1C32,33.561,30.45,32,28.55,32z M29,48H16V35h13V48z
		 M14.82,9.428l-0.389,0.377c-5.895,5.912-4.594,9.788,0.176,14.569c4.792,4.803,8.707,6.082,14.574,0.206l0.39-0.375
		c5.906-5.919,4.583-9.807-0.18-14.584C24.603,4.829,20.696,3.54,14.82,9.428z M52.55,32H40.46C38.55,32,37,33.561,37,35.45v12.1
		c0,1.89,1.55,3.45,3.46,3.45h12.09c1.9,0,3.45-1.561,3.45-3.45v-12.1C56,33.561,54.45,32,52.55,32z M53,48H40V35h13V48z"/>
	<linearGradient id="SVGID_1_" gradientUnits="userSpaceOnUse" x1="33.2505" y1="51" x2="33.2505" y2="5.501">
		<stop  offset="0" style="stop-color:#D0CBC5"/>
		<stop  offset="0.5031" style="stop-color:#FAFCEF"/>
		<stop  offset="0.9693" style="stop-color:#FFFFFF"/>
	</linearGradient>
	<path fill="url(#SVGID_1_)" d="M52.55,8H40.46C38.55,8,37,9.56,37,11.45v12.1c0,1.89,1.55,3.45,3.46,3.45h12.09
		c1.9,0,3.45-1.56,3.45-3.45v-12.1C56,9.56,54.45,8,52.55,8z M53,24H40V11h13V24z M28.55,32H16.46C14.55,32,13,33.561,13,35.45v12.1
		c0,1.89,1.55,3.45,3.46,3.45h12.09c1.9,0,3.45-1.561,3.45-3.45v-12.1C32,33.561,30.45,32,28.55,32z M29,48H16V35h13V48z
		 M14.82,9.428l-0.389,0.377c-5.895,5.912-4.594,9.788,0.176,14.569c4.792,4.803,8.707,6.082,14.574,0.206l0.39-0.375
		c5.906-5.919,4.583-9.807-0.18-14.584C24.603,4.829,20.696,3.54,14.82,9.428z M52.55,32H40.46C38.55,32,37,33.561,37,35.45v12.1
		c0,1.89,1.55,3.45,3.46,3.45h12.09c1.9,0,3.45-1.561,3.45-3.45v-12.1C56,33.561,54.45,32,52.55,32z M53,48H40V35h13V48z"/>
	<path fill="#FFFFFF" d="M16,49v-1h13v1H16z M28.55,32H16.46C14.55,32,13,33.561,13,35.45v1c0-1.89,1.55-3.45,3.46-3.45h12.09
		c1.9,0,3.45,1.561,3.45,3.45v-1C32,33.561,30.45,32,28.55,32z M53,25v-1H40v1H53z M53,49v-1H40v1H53z M14.82,9.428l-0.389,0.377
		c-2.965,2.974-4.107,5.432-3.905,7.75c0.164-2.029,1.362-4.2,3.905-6.75l0.389-0.377c5.876-5.888,9.783-4.599,14.571,0.192
		c2.369,2.376,3.884,4.532,4.085,6.828c0.215-2.679-1.375-5.11-4.085-7.828C24.603,4.829,20.696,3.54,14.82,9.428z M52.55,8H40.46
		C38.55,8,37,9.56,37,11.45v1C37,10.56,38.55,9,40.46,9h12.09c1.9,0,3.45,1.56,3.45,3.45v-1C56,9.56,54.45,8,52.55,8z M52.55,32
		H40.46C38.55,32,37,33.561,37,35.45v1c0-1.89,1.55-3.45,3.46-3.45h12.09c1.9,0,3.45,1.561,3.45,3.45v-1
		C56,33.561,54.45,32,52.55,32z"/>
</g>
<g id="DO_NOT_EDIT_-_FOCAL_ZONE_GUIDES">
</g>
</svg>
