<?xml version="1.0" encoding="utf-8"?>
<!-- Generator: Adobe Illustrator 14.0.0, SVG Export Plug-In  -->
<!DOCTYPE svg PUBLIC "-//W3C//DTD SVG 1.1//EN" "http://www.w3.org/Graphics/SVG/1.1/DTD/svg11.dtd" [
	<!ENTITY ns_flows "http://ns.adobe.com/Flows/1.0/">
]>
<svg version="1.1"
	 xmlns="http://www.w3.org/2000/svg" xmlns:xlink="http://www.w3.org/1999/xlink" xmlns:a="http://ns.adobe.com/AdobeSVGViewerExtensions/3.0/"
	 x="0px" y="0px" width="67px" height="57px" viewBox="0 0 67 57" enable-background="new 0 0 67 57" xml:space="preserve">
<defs>
</defs>
<g>
	<rect fill="none" width="67" height="57"/>
</g>
<g>
	<rect x="10.5" y="5.5" fill="none" width="46" height="46"/>
</g>
<path opacity="0.15" d="M25.313,50.828c-0.397,0-0.795-0.099-1.147-0.285l-4.932-2.646c-0.576-0.309-0.997-0.823-1.186-1.45
	c-0.178-0.592-0.128-1.217,0.14-1.77l0.619-1.938l0.019-0.073c0.001-0.008,0.284-1.23-0.158-2.505
	c-1.166-1.383-2.116-2.911-2.83-4.545c-0.944-0.955-2.143-1.239-2.155-1.242l-0.153-0.033l-1.961-0.297
	c-1.342-0.063-2.346-1.075-2.39-2.357l-0.176-5.593c-0.042-1.312,0.966-2.419,2.265-2.519l1.988-0.431l0.074-0.021
	c0.008-0.003,1.211-0.371,2.092-1.398c0.332-0.915,0.683-1.711,1.068-2.429c0.385-0.721,0.847-1.44,1.445-2.248
	c0.37-1.309,0.01-2.518,0.006-2.529l-0.764-1.96c-0.303-0.537-0.393-1.16-0.249-1.766c0.15-0.638,0.54-1.177,1.096-1.517
	l3.885-2.407l0.858-0.539c0.394-0.243,0.837-0.369,1.291-0.369c0.821,0,1.57,0.399,2.025,1.074l1.354,1.49l0.067,0.065
	c0.006,0.006,0.949,0.883,2.308,1.121c1.042-0.174,2.101-0.263,3.149-0.263c0.682,0,1.368,0.038,2.045,0.112
	c1.352-0.319,2.245-1.269,2.255-1.279l0.063-0.066l1.257-1.574c0.44-0.743,1.237-1.2,2.106-1.2c0.4,0,0.801,0.101,1.155,0.291
	l0.894,0.474l4.037,2.17c0.568,0.301,0.99,0.813,1.18,1.438c0.031,0.102,0.056,0.204,0.072,0.307l0.033-0.033l-0.023,0.094
	c0.069,0.48-0.006,0.968-0.22,1.41l-0.642,2.02c-0.021,0.095-0.285,1.351,0.206,2.622c1.076,1.308,1.97,2.753,2.659,4.302
	c0.956,1.051,2.27,1.36,2.283,1.363l0.087,0.021l2.02,0.307c1.345,0.06,2.355,1.078,2.394,2.366L57,30.178
	c0.019,0.656-0.219,1.278-0.669,1.756c-0.055,0.059-0.112,0.113-0.172,0.165l0.123,0.031l-0.244,0.069
	c-0.378,0.289-0.828,0.462-1.308,0.495l-1.966,0.427l-0.097,0.027c-0.009,0.002-1.31,0.395-2.196,1.517
	c-0.336,0.899-0.663,1.636-1.023,2.308c-0.357,0.667-0.785,1.341-1.342,2.111c-0.44,1.358-0.052,2.652-0.047,2.665l0.767,1.962
	c0.635,1.136,0.271,2.59-0.841,3.28l-4.76,2.948c-0.383,0.238-0.828,0.366-1.285,0.366c-0.817,0-1.565-0.396-2.021-1.067
	l-1.367-1.509l-0.057-0.055c-0.006-0.006-0.952-0.892-2.32-1.127c-1.045,0.185-2.116,0.278-3.187,0.278
	c-0.669,0-1.348-0.037-2.019-0.109c-1.337,0.325-2.22,1.26-2.229,1.27l-0.043,0.046l-1.274,1.597
	C26.983,50.371,26.185,50.828,25.313,50.828L25.313,50.828z M32.943,16.391c-6.522,0-11.828,5.307-11.828,11.83
	c0,6.521,5.306,11.825,11.828,11.825s11.828-5.305,11.828-11.825C44.771,21.697,39.466,16.391,32.943,16.391L32.943,16.391z"/>
<path opacity="0.3" d="M55.967,30.365l-0.109-3.558l-0.035-1.014c-0.023-0.801-0.689-1.423-1.49-1.398l-2.24-0.341
	c0.006,0,0.014-0.007,0.014-0.007s-1.712-0.371-2.92-1.797c-0.674-1.549-1.57-3.007-2.674-4.324
	c-0.729-1.709-0.307-3.392-0.307-3.392S46.2,14.54,46.2,14.546l0.687-2.161c0.378-0.703,0.115-1.583-0.589-1.956l-0.896-0.484
	l-3.135-1.682l-0.898-0.477c-0.703-0.378-1.579-0.113-1.957,0.591l-1.414,1.77v-0.015c0,0-1.145,1.26-2.941,1.614
	c-1.758-0.209-3.521-0.15-5.236,0.152c-1.801-0.249-3.01-1.415-3.01-1.415s0.002,0.011,0.002,0.015L25.289,8.82
	c-0.42-0.683-1.313-0.889-1.99-0.471l-0.863,0.542l-3.023,1.874l-0.865,0.536c-0.678,0.415-0.889,1.313-0.467,1.99l0.824,2.108
	c-0.002-0.005-0.008-0.007-0.008-0.007s0.5,1.575-0.055,3.285c-0.536,0.714-1.039,1.455-1.471,2.265
	c-0.429,0.796-0.771,1.621-1.066,2.455c-1.112,1.403-2.699,1.858-2.699,1.858s0.007,0.005,0.012,0.005l-2.214,0.479
	c-0.798,0.028-1.427,0.691-1.401,1.49l0.035,1.018l0.108,3.559l0.032,1.017c0.027,0.798,0.693,1.424,1.49,1.396l2.24,0.339
	c-0.004,0.006-0.012,0.011-0.012,0.011s1.59,0.348,2.789,1.659c0.703,1.655,1.666,3.203,2.857,4.591
	c0.652,1.663,0.253,3.261,0.253,3.261s0.009-0.008,0.01-0.008l-0.688,2.156c-0.377,0.704-0.114,1.582,0.589,1.958l0.896,0.479
	l3.137,1.683l0.896,0.483c0.703,0.372,1.58,0.111,1.958-0.593l1.413-1.77v0.012c0,0,1.132-1.241,2.911-1.604
	c1.764,0.207,3.531,0.149,5.244-0.17c1.814,0.243,3.031,1.423,3.031,1.423s0-0.01-0.001-0.012l1.522,1.68
	c0.42,0.676,1.313,0.885,1.988,0.463l0.867-0.534l3.025-1.875l0.863-0.536c0.68-0.423,0.886-1.311,0.466-1.995l-0.824-2.105
	c0.003,0.004,0.007,0.008,0.007,0.008s-0.535-1.668,0.104-3.433c0.489-0.67,0.954-1.363,1.358-2.117
	c0.406-0.758,0.729-1.537,1.019-2.322c1.115-1.515,2.811-1.992,2.811-1.992s-0.008-0.002-0.011-0.006l2.212-0.479
	c0.797-0.022,1.426-0.696,1.402-1.49L55.967,30.365z M32.943,42.218c-7.086,0-12.828-5.744-12.828-12.825
	c0-7.087,5.742-12.83,12.828-12.83c7.084,0,12.828,5.743,12.828,12.83C45.771,36.474,40.027,42.218,32.943,42.218z"/>
<linearGradient id="SVGID_1_" gradientUnits="userSpaceOnUse" x1="33.0015" y1="49.8281" x2="33.0015" y2="6.4424">
	<stop  offset="0" style="stop-color:#D0CBC5"/>
	<stop  offset="0.5031" style="stop-color:#FAFCEF"/>
	<stop  offset="0.9693" style="stop-color:#FFFFFF"/>
</linearGradient>
<path fill="url(#SVGID_1_)" d="M55.967,29.193l-0.109-3.558l-0.035-1.014c-0.023-0.801-0.689-1.423-1.49-1.398l-2.24-0.341
	c0.006,0,0.014-0.007,0.014-0.007s-1.712-0.371-2.92-1.797c-0.674-1.549-1.57-3.007-2.674-4.324
	c-0.729-1.709-0.307-3.392-0.307-3.392S46.2,13.368,46.2,13.374l0.687-2.161c0.378-0.703,0.115-1.583-0.589-1.956l-0.896-0.484
	l-3.135-1.682l-0.898-0.477c-0.703-0.378-1.579-0.113-1.957,0.591l-1.414,1.77V8.96c0,0-1.145,1.26-2.941,1.614
	c-1.758-0.209-3.521-0.15-5.236,0.152c-1.801-0.249-3.01-1.415-3.01-1.415s0.002,0.011,0.002,0.015l-1.523-1.678
	c-0.42-0.683-1.313-0.889-1.99-0.471L22.436,7.72l-3.023,1.874l-0.865,0.536c-0.678,0.415-0.889,1.313-0.467,1.99l0.824,2.108
	c-0.002-0.005-0.008-0.007-0.008-0.007s0.5,1.575-0.055,3.285c-0.536,0.714-1.039,1.455-1.471,2.265
	c-0.429,0.796-0.771,1.621-1.066,2.455c-1.112,1.403-2.699,1.858-2.699,1.858s0.007,0.005,0.012,0.005l-2.214,0.479
	c-0.798,0.028-1.427,0.691-1.401,1.49l0.035,1.018l0.108,3.559l0.032,1.017c0.027,0.798,0.693,1.424,1.49,1.396l2.24,0.339
	c-0.004,0.006-0.012,0.011-0.012,0.011s1.59,0.348,2.789,1.659c0.703,1.655,1.666,3.203,2.857,4.591
	c0.652,1.663,0.253,3.261,0.253,3.261s0.009-0.008,0.01-0.008l-0.688,2.156c-0.377,0.704-0.114,1.582,0.589,1.958l0.896,0.479
	l3.137,1.683l0.896,0.483c0.703,0.372,1.58,0.111,1.958-0.593l1.413-1.77v0.012c0,0,1.132-1.241,2.911-1.604
	c1.764,0.207,3.531,0.149,5.244-0.17c1.814,0.243,3.031,1.423,3.031,1.423s0-0.01-0.001-0.012l1.522,1.68
	c0.42,0.676,1.313,0.885,1.988,0.463l0.867-0.534l3.025-1.875l0.863-0.536c0.68-0.423,0.886-1.311,0.466-1.995l-0.824-2.105
	c0.003,0.004,0.007,0.008,0.007,0.008s-0.535-1.668,0.104-3.433c0.489-0.67,0.954-1.363,1.358-2.117
	c0.406-0.758,0.729-1.537,1.019-2.322c1.115-1.515,2.811-1.992,2.811-1.992s-0.008-0.002-0.011-0.006l2.212-0.479
	c0.797-0.022,1.426-0.696,1.402-1.49L55.967,29.193z M32.943,41.046c-7.086,0-12.828-5.744-12.828-12.825
	c0-7.087,5.742-12.83,12.828-12.83c7.084,0,12.828,5.743,12.828,12.83C45.771,35.302,40.027,41.046,32.943,41.046z"/>
<path fill="#FFFFFF" d="M19.886,42.33c-0.036,0.358-0.09,0.578-0.09,0.578s0.009-0.008,0.01-0.008l-0.688,2.156
	c-0.22,0.41-0.217,0.877-0.041,1.271c0.015-0.033,0.023-0.067,0.041-0.1l0.688-2.156c-0.001,0-0.01,0.008-0.01,0.008
	S19.975,43.33,19.886,42.33z M19.072,16.359c-0.034,0.364-0.102,0.751-0.23,1.147c-0.536,0.714-1.039,1.455-1.471,2.265
	c-0.429,0.796-0.771,1.621-1.066,2.455c-1.112,1.403-2.699,1.858-2.699,1.858s0.007,0.005,0.012,0.005l-2.214,0.479
	c-0.798,0.028-1.427,0.691-1.401,1.49l0.029,0.847c0.127-0.646,0.686-1.141,1.372-1.165l2.214-0.479
	c-0.005,0-0.012-0.005-0.012-0.005s1.587-0.455,2.699-1.858c0.296-0.834,0.638-1.659,1.066-2.455
	c0.432-0.81,0.935-1.551,1.471-2.265C19.125,17.806,19.133,16.971,19.072,16.359z M18.547,11.302l0.865-0.536l3.023-1.874
	l0.863-0.542c0.678-0.418,1.57-0.212,1.99,0.471l1.523,1.678c0-0.004-0.002-0.015-0.002-0.015s1.209,1.166,3.01,1.415
	c1.715-0.303,3.479-0.361,5.236-0.152c1.797-0.354,2.941-1.614,2.941-1.614v0.015l1.414-1.77c0.378-0.704,1.254-0.969,1.957-0.591
	l0.898,0.477l3.135,1.682l0.896,0.484c0.294,0.155,0.505,0.401,0.63,0.684c0.305-0.685,0.041-1.5-0.63-1.855l-0.896-0.484
	l-3.135-1.682l-0.898-0.477c-0.703-0.378-1.579-0.113-1.957,0.591l-1.414,1.77V8.96c0,0-1.145,1.26-2.941,1.614
	c-1.758-0.209-3.521-0.15-5.236,0.152c-1.801-0.249-3.01-1.415-3.01-1.415s0.002,0.011,0.002,0.015l-1.523-1.678
	c-0.42-0.683-1.313-0.889-1.99-0.471L22.436,7.72l-3.023,1.874l-0.865,0.536c-0.618,0.379-0.842,1.157-0.557,1.806
	C18.104,11.682,18.293,11.457,18.547,11.302z M47.099,42.042c0.003,0.004,0.007,0.008,0.007,0.008s-0.123-0.393-0.18-0.992
	c-0.123,1.22,0.18,2.164,0.18,2.164s-0.004-0.004-0.007-0.008l0.824,2.105c0.037,0.061,0.063,0.124,0.091,0.188
	c0.189-0.424,0.172-0.932-0.091-1.359L47.099,42.042z M55.967,29.193l-0.109-3.558l-0.035-1.014
	c-0.023-0.801-0.689-1.423-1.49-1.398l-2.24-0.341c0.006,0,0.014-0.007,0.014-0.007s-1.712-0.371-2.92-1.797
	c-0.674-1.549-1.57-3.007-2.674-4.324c-0.244-0.57-0.352-1.133-0.397-1.636c-0.063,0.638-0.069,1.715,0.397,2.808
	c1.104,1.317,2,2.775,2.674,4.324c1.208,1.426,2.92,1.797,2.92,1.797s-0.008,0.007-0.014,0.007l2.24,0.341
	c0.801-0.024,1.467,0.598,1.49,1.398l0.035,1.014l0.109,3.558l0.006,0.161c0.02-0.103,0.03-0.208,0.027-0.316L55.967,29.193z
	 M32.943,41.046c-6.889,0-12.49-5.433-12.799-12.239c-0.009,0.195-0.029,0.388-0.029,0.586c0,7.081,5.742,12.825,12.828,12.825
	c7.084,0,12.828-5.744,12.828-12.825c0-0.198-0.02-0.391-0.029-0.586C45.434,35.613,39.83,41.046,32.943,41.046z"/>
</svg>
