<?xml version="1.0" encoding="utf-8"?>
<!-- Generator: Adobe Illustrator 15.0.0, SVG Export Plug-In . SVG Version: 6.00 Build 0)  -->
<!DOCTYPE svg PUBLIC "-//W3C//DTD SVG 1.1//EN" "http://www.w3.org/Graphics/SVG/1.1/DTD/svg11.dtd">
<svg version="1.1"
	 id="svg2" xmlns:inkscape="http://www.inkscape.org/namespaces/inkscape" xmlns:sodipodi="http://sodipodi.sourceforge.net/DTD/sodipodi-0.dtd" xmlns:dc="http://purl.org/dc/elements/1.1/" xmlns:rdf="http://www.w3.org/1999/02/22-rdf-syntax-ns#" xmlns:cc="http://creativecommons.org/ns#" xmlns:svg="http://www.w3.org/2000/svg" inkscape:version="0.48.2 r9819" sodipodi:docname="release-refresh-inverse.svg"
	 xmlns="http://www.w3.org/2000/svg" xmlns:xlink="http://www.w3.org/1999/xlink" x="0px" y="0px" width="30px" height="30px"
	 viewBox="0 0 30 30" enable-background="new 0 0 30 30" xml:space="preserve">
<sodipodi:namedview  id="namedview17" inkscape:window-maximized="0" objecttolerance="10" inkscape:cx="15" gridtolerance="10" inkscape:zoom="7.8666667" bordercolor="#666666" showgrid="false" guidetolerance="10" borderopacity="1" pagecolor="#ffffff" inkscape:cy="15" inkscape:current-layer="svg2" inkscape:window-y="0" inkscape:window-x="0" inkscape:window-height="480" inkscape:window-width="640" inkscape:pageshadow="2" inkscape:pageopacity="0">
	</sodipodi:namedview>
<g>
	<path id="path4" inkscape:connector-curvature="0" fill="#FFFFFF" d="M13.208,5.208v15l-5.293-5.292
		c-0.389-0.389-1.025-0.389-1.414,0L4.915,16.5c-0.389,0.391-0.389,1.025,0,1.414L14.5,27.5c0.389,0.391,1.025,0.391,1.414,0
		l9.586-9.586c0.391-0.389,0.391-1.023,0-1.414l-1.586-1.585c-0.389-0.389-1.023-0.389-1.414,0l-5.293,5.292v-15
		c0-0.549-0.448-1-1-1h-2C13.659,4.208,13.208,4.659,13.208,5.208L13.208,5.208z"/>
	
		<linearGradient id="path6_1_" gradientUnits="userSpaceOnUse" x1="-1897.4839" y1="825.9199" x2="-1872.7065" y2="825.9199" gradientTransform="matrix(0 -1 1 0 -810.7119 -1869.1133)">
		<stop  offset="0" style="stop-color:#636363"/>
		<stop  offset="1" style="stop-color:#000000"/>
	</linearGradient>
	<path id="path6" inkscape:connector-curvature="0" fill="url(#path6_1_)" d="M13.208,4.208v15l-5.293-5.292
		c-0.389-0.389-1.025-0.389-1.414,0L4.915,15.5c-0.389,0.391-0.389,1.025,0,1.414L14.5,26.5c0.389,0.391,1.025,0.391,1.414,0
		l9.586-9.586c0.391-0.389,0.391-1.023,0-1.414l-1.586-1.585c-0.389-0.389-1.023-0.389-1.414,0l-5.293,5.292v-15
		c0-0.549-0.448-1-1-1h-2C13.658,3.208,13.208,3.659,13.208,4.208L13.208,4.208z"/>
	<rect id="rect8" fill="none" width="30" height="30"/>
</g>
</svg>
