<?xml version="1.0" encoding="utf-8"?>
<!-- Generator: Adobe Illustrator 15.0.0, SVG Export Plug-In . SVG Version: 6.00 Build 0)  -->
<!DOCTYPE svg PUBLIC "-//W3C//DTD SVG 1.1//EN" "http://www.w3.org/Graphics/SVG/1.1/DTD/svg11.dtd">
<svg version="1.1" xmlns="http://www.w3.org/2000/svg" xmlns:xlink="http://www.w3.org/1999/xlink" x="0px" y="0px" width="30px"
	 height="30px" viewBox="0 0 30 30" enable-background="new 0 0 30 30" xml:space="preserve">
<g id="DO_NOT_EDIT_-_BOUNDING_BOX">
	<rect id="BOUNDING_BOX" fill="none" width="30" height="30"/>
</g>
<g id="PLACE_YOUR_GRAPHIC_HERE">
	<path opacity="0.3" d="M26,9c0,1.104-0.896,2-2,2s-2-0.896-2-2V7h-2c-1.104,0-2-0.896-2-2c0-1.005,0.746-1.831,1.713-1.971
		C19.662,3.021,19.623,3,19.564,3h-9.131C9.859,3,9.641,3.4,9.945,3.889l0.849,1.368c0.306,0.486,0.085,0.888-0.489,0.888H7.174
		c-0.572,0-0.795-0.4-0.49-0.888l0.851-1.368C7.838,3.4,7.616,3,7.042,3H3.924C3.413,3,3,3.41,3,3.917v20.166
		C3,24.59,3.413,25,3.924,25h22.153C26.588,25,27,24.59,27,24.083V7h-1V9z M19.2,10.305c0,0.036-0.011,0.072-0.029,0.104
		c-2.063,3.398-3.188,6.965-3.341,10.6c-0.005,0.107-0.094,0.192-0.2,0.192h-2.825c-0.056,0-0.107-0.022-0.146-0.063
		c-0.037-0.041-0.058-0.095-0.054-0.15c0.24-3.586,1.326-7,3.229-10.151H11c-0.109,0-0.2-0.09-0.2-0.2V9c0-0.109,0.091-0.2,0.2-0.2
		h8c0.109,0,0.2,0.091,0.2,0.2V10.305z M28,4h-3V1c0-0.553-0.447-1-1-1s-1,0.447-1,1v3h-3c-0.553,0-1,0.447-1,1s0.447,1,1,1h3v3
		c0,0.553,0.447,1,1,1s1-0.447,1-1V6h3c0.553,0,1-0.447,1-1S28.553,4,28,4z"/>
	<path opacity="0.15" d="M28,4h-2V2c0-1.103-0.897-2-2-2s-2,0.897-2,2v1H10.434C9.787,3,7.689,3,7.042,3H3.924
		C2.863,3,2,3.86,2,4.917v20.166C2,26.14,2.863,27,3.924,27h22.153C27.138,27,28,26.14,28,25.083V8c1.103,0,2-0.897,2-2
		S29.103,4,28,4z"/>
	<path opacity="0.15" d="M26,10c0,1.104-0.896,2-2,2s-2-0.896-2-2V8h-2c-1.104,0-2-0.896-2-2c0-1.005,0.746-1.831,1.713-1.971
		C19.662,4.021,19.623,4,19.564,4h-9.131C9.859,4,9.641,4.4,9.945,4.889l0.849,1.368c0.306,0.486,0.085,0.888-0.489,0.888H7.174
		c-0.572,0-0.795-0.4-0.49-0.888l0.851-1.368C7.838,4.4,7.616,4,7.042,4H3.924C3.413,4,3,4.41,3,4.917v20.166
		C3,25.59,3.413,26,3.924,26h22.153C26.588,26,27,25.59,27,25.083V8h-1V10z M19.2,11.305c0,0.036-0.011,0.072-0.029,0.104
		c-2.063,3.398-3.188,6.965-3.341,10.6c-0.005,0.107-0.094,0.192-0.2,0.192h-2.825c-0.056,0-0.107-0.022-0.146-0.063
		c-0.037-0.041-0.058-0.095-0.054-0.15c0.24-3.586,1.326-7,3.229-10.151H11c-0.109,0-0.2-0.09-0.2-0.2V10c0-0.109,0.091-0.2,0.2-0.2
		h8c0.109,0,0.2,0.091,0.2,0.2V11.305z M28,5h-3V2c0-0.553-0.447-1-1-1s-1,0.447-1,1v3h-3c-0.553,0-1,0.447-1,1s0.447,1,1,1h3v3
		c0,0.553,0.447,1,1,1s1-0.447,1-1V7h3c0.553,0,1-0.447,1-1S28.553,5,28,5z"/>
	<path fill="#FFFFFF" d="M26,10c0,1.104-0.896,2-2,2s-2-0.896-2-2V8h-2c-1.104,0-2-0.896-2-2c0-1.005,0.746-1.831,1.713-1.971
		C19.662,4.021,19.623,4,19.564,4h-9.131C9.859,4,9.641,4.4,9.945,4.889l0.849,1.368c0.306,0.486,0.085,0.888-0.489,0.888H7.174
		c-0.572,0-0.795-0.4-0.49-0.888l0.851-1.368C7.838,4.4,7.616,4,7.042,4H3.924C3.413,4,3,4.41,3,4.917v20.166
		C3,25.59,3.413,26,3.924,26h22.153C26.588,26,27,25.59,27,25.083V8h-1V10z M19.2,11.305c0,0.036-0.011,0.072-0.029,0.104
		c-2.063,3.398-3.188,6.965-3.341,10.6c-0.005,0.107-0.094,0.192-0.2,0.192h-2.825c-0.056,0-0.107-0.022-0.146-0.063
		c-0.037-0.041-0.058-0.095-0.054-0.15c0.24-3.586,1.326-7,3.229-10.151H11c-0.109,0-0.2-0.09-0.2-0.2V10c0-0.109,0.091-0.2,0.2-0.2
		h8c0.109,0,0.2,0.091,0.2,0.2V11.305z M28,5h-3V2c0-0.553-0.447-1-1-1s-1,0.447-1,1v3h-3c-0.553,0-1,0.447-1,1s0.447,1,1,1h3v3
		c0,0.553,0.447,1,1,1s1-0.447,1-1V7h3c0.553,0,1-0.447,1-1S28.553,5,28,5z"/>
</g>
</svg>
