<?xml version="1.0" encoding="utf-8"?>
<!-- Generator: Adobe Illustrator 15.0.0, SVG Export Plug-In . SVG Version: 6.00 Build 0)  -->
<!DOCTYPE svg PUBLIC "-//W3C//DTD SVG 1.1//EN" "http://www.w3.org/Graphics/SVG/1.1/DTD/svg11.dtd">
<svg version="1.1" id="图层_1" xmlns="http://www.w3.org/2000/svg" xmlns:xlink="http://www.w3.org/1999/xlink" x="0px" y="0px"
	 width="30px" height="30px" viewBox="0 0 30 30" enable-background="new 0 0 30 30" xml:space="preserve">
<g>
	<g id="DO_NOT_EDIT_-_BOUNDING_BOX">
		<rect id="BOUNDING_BOX" fill="none" width="30" height="30"/>
	</g>
	<rect fill="none" width="30" height="30"/>
	<g>
		<path opacity="0.15" fill="#FFFFFF" enable-background="new    " d="M16.014,28.896c-0.328,0-0.632-0.004-0.909-0.013
			c-0.241,0.009-0.543,0.013-0.871,0.013c-1.325,0-3.412-0.086-6.235-0.813c-1.369-0.356-2.582-0.834-3.605-1.42
			c-0.315-0.181-0.483-0.539-0.421-0.896l0.023-0.145c0.337-1.344,1.679-2.045,1.832-2.123c1.666-0.979,3.348-1.636,3.417-1.662
			c0.876-0.354,1.434-0.967,1.649-1.829c0.089-0.354,0.14-0.599,0.157-0.741c-0.794-0.811-1.229-2.117-1.418-2.846
			c-0.571-0.295-0.75-1.119-0.886-1.752c-0.037-0.173-0.07-0.333-0.106-0.444c-0.254-0.823-0.297-1.256-0.269-1.517
			c-0.005-0.379,0.096-0.691,0.295-0.928c-0.198-0.665-0.259-1.17-0.239-1.789C8.438,9.698,8.42,9.44,8.402,9.191
			C8.334,8.228,8.268,7.233,9.46,5.321c0.157-0.27,0.513-0.604,1.02-0.73c0.021-0.05,0.047-0.104,0.076-0.159
			c0.174-0.332,0.527-1.008,1.595-1.008c0.113,0,0.239,0.009,0.381,0.025h0.001c0.07,0,0.2-0.053,0.339-0.108
			c0.353-0.139,0.834-0.332,1.579-0.332c0.58,0,1.224,0.117,1.968,0.36l0.938,0.299c1.854,0.588,2.549,0.808,3.103,1.632
			c1.272,1.917,1.304,2.741,1.244,3.922c-0.013,0.188-0.022,0.389-0.022,0.616c0,0.58-0.1,1.051-0.195,1.506
			c-0.021,0.118-0.051,0.233-0.069,0.351c0.038,0.032,0.069,0.067,0.104,0.104c0.248,0.282,0.348,0.661,0.287,1.129
			c-0.015,0.083-0.113,0.58-0.346,1.324c-0.031,0.107-0.066,0.235-0.104,0.369c-0.189,0.717-0.428,1.581-1.063,1.834
			c-0.188,0.703-0.621,1.984-1.41,2.806c0.016,0.124,0.051,0.339,0.146,0.707c0.05,0.146,0.487,1.13,1.253,1.649
			c0.126,0.074,0.275,0.15,0.443,0.219c0.074,0.029,1.761,0.688,3.479,1.691c0.104,0.053,1.438,0.754,1.758,2.035l0.062,0.302
			c0.064,0.364-0.104,0.73-0.43,0.913c-0.979,0.547-2.072,0.975-3.346,1.305C19.417,28.811,17.334,28.896,16.014,28.896z"/>
		<path opacity="0.15" fill="#FFFFFF" enable-background="new    " d="M25.123,25.773c-0.23-0.938-1.357-1.5-1.357-1.5
			c-1.684-0.983-3.353-1.633-3.353-1.633c-0.231-0.089-0.438-0.192-0.626-0.313c-1.023-0.703-1.555-1.957-1.602-2.147
			c-0.146-0.578-0.271-1.188-0.065-1.388c1.038-0.897,1.45-3.039,1.45-3.039c0.022-0.082,0.051-0.16,0.082-0.233
			c0.509,0.625,0.77-0.847,0.979-1.521c0.223-0.709,0.313-1.175,0.313-1.175c0.09-0.722-0.459-0.509-0.459-0.509l-0.045,0.047
			c0.08-1.006,0.371-1.619,0.371-2.525c0.008-1.402,0.354-1.911-1.076-4.056c-0.442-0.666-1.053-0.774-3.588-1.59
			c-2.521-0.817-2.882,0.218-3.723,0.117c-0.835-0.1-0.951,0.241-1.113,0.543c-0.163,0.297,0,0.535-0.458,0.557
			c-0.459,0.02-0.664,0.369-0.664,0.369C8.827,7.965,9.332,8.622,9.285,10.02c-0.025,0.742,0.096,1.297,0.482,2.322l-0.04-0.057
			c0,0-0.537-0.25-0.495,0.473c0,0-0.076,0.227,0.228,1.2c0.182,0.557,0.32,2.106,0.84,1.619c0.018,0.055,0.042,0.116,0.061,0.176
			c0,0,0.409,2.144,1.447,3.039c0.211,0.198,0.077,0.812-0.066,1.39c-0.062,0.221-0.355,1.729-2.183,2.463
			c0,0-1.669,0.646-3.347,1.631c0,0-1.132,0.563-1.366,1.5l-0.023,0.139c0.953,0.547,2.083,0.99,3.394,1.332
			c3.202,0.83,5.411,0.811,6.905,0.775c1.496,0.027,3.701,0.055,6.905-0.775c1.216-0.314,2.25-0.727,3.143-1.221L25.123,25.773z"/>
		<path fill="#FFFFFF" d="M25.123,25.773c-0.23-0.938-1.357-1.5-1.357-1.5c-1.684-0.983-3.353-1.633-3.353-1.633
			c-0.231-0.089-0.438-0.192-0.626-0.313c-1.023-0.703-1.555-1.957-1.602-2.147c-0.146-0.578-0.271-1.188-0.065-1.388
			c1.038-0.897,1.45-3.039,1.45-3.039c0.022-0.082,0.051-0.16,0.082-0.233c0.509,0.625,0.77-0.847,0.979-1.521
			c0.223-0.709,0.313-1.175,0.313-1.175c0.09-0.722-0.459-0.509-0.459-0.509l-0.045,0.047c0.08-1.006,0.371-1.619,0.371-2.525
			c0.008-1.402,0.354-1.911-1.076-4.056c-0.442-0.666-1.053-0.774-3.588-1.59c-2.521-0.817-2.882,0.218-3.723,0.117
			c-0.835-0.1-0.951,0.241-1.113,0.543c-0.163,0.297,0,0.535-0.458,0.557c-0.459,0.02-0.664,0.369-0.664,0.369
			C8.827,7.965,9.332,8.622,9.285,10.02c-0.025,0.742,0.096,1.297,0.482,2.322l-0.04-0.057c0,0-0.537-0.25-0.495,0.473
			c0,0-0.076,0.227,0.228,1.2c0.182,0.557,0.32,2.106,0.84,1.619c0.018,0.055,0.042,0.116,0.061,0.176c0,0,0.409,2.144,1.447,3.039
			c0.211,0.198,0.077,0.812-0.066,1.39c-0.062,0.221-0.355,1.729-2.183,2.463c0,0-1.669,0.646-3.347,1.631
			c0,0-1.132,0.563-1.366,1.5l-0.023,0.139c0.953,0.547,2.083,0.99,3.394,1.332c3.202,0.83,5.411,0.811,6.905,0.775
			c1.496,0.027,3.701,0.055,6.905-0.775c1.216-0.314,2.25-0.727,3.143-1.221L25.123,25.773z"/>
		
			<linearGradient id="SVGID_1_" gradientUnits="userSpaceOnUse" x1="-1295.2017" y1="-1038.4697" x2="-1295.2017" y2="-1014.313" gradientTransform="matrix(1 0 0 -1 1310.2002 -1011.3008)">
			<stop  offset="0" style="stop-color:#636363"/>
			<stop  offset="1" style="stop-color:#000000"/>
		</linearGradient>
		<path fill="url(#SVGID_1_)" d="M25.123,24.911c-0.23-0.937-1.357-1.5-1.357-1.5c-1.684-0.981-3.353-1.631-3.353-1.631
			c-0.231-0.095-0.438-0.195-0.626-0.316c-1.023-0.7-1.555-1.954-1.602-2.147c-0.146-0.575-0.271-1.188-0.065-1.381
			c1.038-0.901,1.45-3.042,1.45-3.042c0.022-0.083,0.051-0.162,0.082-0.235c0.509,0.624,0.77-0.847,0.979-1.521
			c0.223-0.709,0.313-1.175,0.313-1.175c0.09-0.723-0.459-0.509-0.459-0.509L20.439,11.5c0.08-1.005,0.371-1.618,0.371-2.525
			c0.008-1.401,0.354-1.911-1.076-4.055c-0.442-0.667-1.053-0.773-3.588-1.589c-2.521-0.82-2.881,0.214-3.722,0.116
			c-0.837-0.101-0.953,0.241-1.115,0.542c-0.163,0.296,0,0.536-0.458,0.557c-0.46,0.02-0.664,0.369-0.664,0.369
			c-1.358,2.188-0.853,2.841-0.9,4.241c-0.025,0.743,0.096,1.297,0.482,2.322l-0.041-0.059c0,0-0.537-0.249-0.495,0.474
			c0,0-0.076,0.226,0.228,1.2c0.182,0.557,0.32,2.108,0.84,1.616c0.018,0.06,0.042,0.121,0.061,0.178c0,0,0.409,2.14,1.447,3.041
			c0.211,0.195,0.077,0.809-0.066,1.385c-0.062,0.228-0.355,1.732-2.183,2.463c0,0-1.669,0.649-3.347,1.636
			c0,0-1.132,0.563-1.366,1.5L4.825,25.05c0.953,0.55,2.083,0.99,3.394,1.332c3.202,0.828,5.411,0.812,6.905,0.773
			c1.496,0.032,3.701,0.055,6.905-0.773c1.216-0.313,2.25-0.725,3.143-1.219L25.123,24.911z"/>
	</g>
</g>
</svg>
