<?xml version="1.0" encoding="utf-8"?>
<!-- Generator: Adobe Illustrator 17.0.0, SVG Export Plug-In . SVG Version: 6.00 Build 0)  -->
<!DOCTYPE svg PUBLIC "-//W3C//DTD SVG 1.1//EN" "http://www.w3.org/Graphics/SVG/1.1/DTD/svg11.dtd">
<svg version="1.1" id="图层_1" xmlns="http://www.w3.org/2000/svg" xmlns:xlink="http://www.w3.org/1999/xlink" x="0px" y="0px"
	 width="30px" height="30px" viewBox="0 0 30 30" enable-background="new 0 0 30 30" xml:space="preserve">
<rect fill="none" width="30" height="30"/>
<path fill="#FFFFFF" d="M9.348,10.292v12.134c0,0.442,0.316,0.803,0.702,0.803h16.846c0.386,0,0.702-0.361,0.702-0.803V10.292
	l-9.125,8.032L9.348,10.292z M27.598,8.771H9.348l9.125,8.032L27.598,8.771z M7.348,23.229H5.876l-0.965-4.016h2.437
	C7.348,19.213,7.348,23.229,7.348,23.229z M7.348,18.008H4.622l-0.965-4.016h3.691C7.348,13.992,7.348,18.008,7.348,18.008z
	 M7.348,12.787H3.367L2.402,8.771h4.946V12.787z"/>
<linearGradient id="SVGID_1_" gradientUnits="userSpaceOnUse" x1="15" y1="22.229" x2="15" y2="7.771">
	<stop  offset="0" style="stop-color:#636363"/>
	<stop  offset="1" style="stop-color:#000000"/>
</linearGradient>
<path fill="url(#SVGID_1_)" d="M9.348,9.292v12.134c0,0.442,0.316,0.803,0.702,0.803h16.846c0.386,0,0.702-0.361,0.702-0.803V9.292
	l-9.125,8.032L9.348,9.292z M27.598,7.771H9.348l9.125,8.032L27.598,7.771z M7.348,22.229H5.876l-0.965-4.016h2.437
	C7.348,18.213,7.348,22.229,7.348,22.229z M7.348,17.008H4.622l-0.965-4.016h3.691C7.348,12.992,7.348,17.008,7.348,17.008z
	 M7.348,11.787H3.367L2.402,7.771h4.946V11.787z"/>
</svg>
