<?xml version="1.0" encoding="utf-8"?>
<!-- Generator: Adobe Illustrator 15.0.0, SVG Export Plug-In . SVG Version: 6.00 Build 0)  -->
<!DOCTYPE svg PUBLIC "-//W3C//DTD SVG 1.1//EN" "http://www.w3.org/Graphics/SVG/1.1/DTD/svg11.dtd">
<svg version="1.1" xmlns="http://www.w3.org/2000/svg" xmlns:xlink="http://www.w3.org/1999/xlink" x="0px" y="0px" width="30px"
	 height="30px" viewBox="0 0 30 30" enable-background="new 0 0 30 30" xml:space="preserve">
<g id="DO_NOT_EDIT_-_BOUNDING_BOX">
	<rect id="BOUNDING_BOX" fill="none" width="30" height="30"/>
</g>
<g id="PLACE_YOUR_GRAPHIC_HERE">
	<g>
		<path opacity="0.3" d="M28,6H2l13,10.001L28,6z M2,7.893v15.108c0,0.55,0.45,1,1,1h24c0.551,0,1-0.45,1-1V7.893L15,17.894L2,7.893
			z"/>
		<rect fill="none" width="30" height="30"/>
		<rect fill="none" width="30" height="30"/>
		<path opacity="0.15" d="M3,26.001c-1.103,0-2-0.897-2-2V8.893c0-0.381-0.084-1.809,0.053-2.215C1.191,6.272,1.572,6,2,6h26
			c0.428,0,0.809,0.272,0.946,0.678C29.085,7.083,29,8.512,29,8.893v15.108c0,1.103-0.897,2-2,2H3z"/>
		<path opacity="0.15" d="M28,7H2l13,10.001L28,7z M2,8.893v15.108c0,0.55,0.45,1,1,1h24c0.551,0,1-0.45,1-1V8.893L15,18.894
			L2,8.893z"/>
		<path fill="#FFFFFF" d="M28,7H2l13,10.001L28,7z M2,8.893v15.108c0,0.55,0.45,1,1,1h24c0.551,0,1-0.45,1-1V8.893L15,18.894
			L2,8.893z"/>
	</g>
</g>
</svg>
