<?xml version="1.0" encoding="utf-8"?>
<!-- Generator: Adobe Illustrator 15.0.0, SVG Export Plug-In . SVG Version: 6.00 Build 0)  -->
<!DOCTYPE svg PUBLIC "-//W3C//DTD SVG 1.1//EN" "http://www.w3.org/Graphics/SVG/1.1/DTD/svg11.dtd">
<svg version="1.1" xmlns="http://www.w3.org/2000/svg" xmlns:xlink="http://www.w3.org/1999/xlink" x="0px" y="0px" width="30px"
	 height="30px" viewBox="0 0 30 30" enable-background="new 0 0 30 30" xml:space="preserve">
<g id="DO_NOT_EDIT_-_BOUNDING_BOX">
	<rect id="BOUNDING_BOX" fill="none" width="30" height="30"/>
</g>
<g id="PLACE_YOUR_GRAPHIC_HERE">
	<path opacity="0.3" d="M13.8,3c0-0.422,0.222-0.813,0.583-1.029L16.002,1H4C3.447,1,3,1.447,3,2v2h11.347
		C14.008,3.779,13.8,3.406,13.8,3z M15,3l5,3V4c2.757,0,5,2.243,5,5h2c0-3.859-3.141-7-7-7V0L15,3z M6.2,19
		c0,0.348,0.058,0.68,0.145,1H10V10c0-1.104,0.896-2,2-2h7V6.799L16.002,5H3v12.8h2C5.662,17.8,6.2,18.338,6.2,19z M23.8,9H12
		c-0.553,0-1,0.447-1,1v2h16v-1.8h-2C24.338,10.2,23.8,9.662,23.8,9z M15,25l-5-3v2c-2.757,0-5-2.243-5-5H3c0,3.859,3.141,7,7,7v2
		L15,25z M11,21.201l4.617,2.77C15.979,24.188,16.2,24.578,16.2,25s-0.222,0.813-0.583,1.029L12.332,28H26c0.553,0,1-0.447,1-1V13
		H11V21.201z"/>
	<path opacity="0.15" d="M10,30c-0.17,0-0.34-0.043-0.493-0.13C9.194,29.692,9,29.36,9,29v-1.063C5.059,27.444,2,24.072,2,20
		c0-0.226,0.074-0.433,0.2-0.601C2.074,19.232,2,19.025,2,18.8V6c0-0.182,0.049-0.353,0.134-0.5C2.049,5.353,2,5.182,2,5V3
		c0-1.103,0.897-2,2-2h12.002c0.426,0,0.803,0.27,0.943,0.667l2.54-1.524C19.644,0.047,19.822,0,20,0c0.17,0,0.34,0.043,0.493,0.13
		C20.807,0.307,21,0.64,21,1v1.062c3.94,0.494,7,3.866,7,7.938c0,0.225-0.074,0.433-0.2,0.6c0.126,0.167,0.2,0.375,0.2,0.6V13
		c0,0.182-0.049,0.353-0.134,0.5C27.951,13.647,28,13.818,28,14v14c0,1.103-0.897,2-2,2H12.332c-0.426,0-0.803-0.27-0.943-0.667
		l-0.875,0.524C10.356,29.952,10.178,30,10,30z M6.537,22C7.068,22.916,7.951,23.603,9,23.873V23c0-0.36,0.194-0.692,0.507-0.87
		C9.66,22.043,9.83,22,9.999,22H6.537z M23.874,9.003C23.513,7.598,22.404,6.489,21,6.126V7c0,0.36-0.193,0.693-0.507,0.87
		C20.34,7.957,20.17,8,20,8v1C20,9,23.85,9.001,23.874,9.003z"/>
	<path opacity="0.15" d="M13.8,4c0-0.422,0.222-0.813,0.583-1.029L16.002,2H4C3.447,2,3,2.447,3,3v2h11.347
		C14.008,4.779,13.8,4.406,13.8,4z M15,4l5,3V5c2.757,0,5,2.243,5,5h2c0-3.859-3.141-7-7-7V1L15,4z M6.2,20
		c0,0.348,0.058,0.68,0.145,1H10V11c0-1.104,0.896-2,2-2h7V7.799L16.002,6H3v12.8h2C5.662,18.8,6.2,19.338,6.2,20z M23.8,10H12
		c-0.553,0-1,0.447-1,1v2h16v-1.8h-2C24.338,11.2,23.8,10.662,23.8,10z M15,26l-5-3v2c-2.757,0-5-2.243-5-5H3c0,3.859,3.141,7,7,7v2
		L15,26z M11,22.201l4.617,2.77C15.979,25.188,16.2,25.578,16.2,26s-0.222,0.813-0.583,1.029L12.332,29H26c0.553,0,1-0.447,1-1V14
		H11V22.201z"/>
	<path fill="#FFFFFF" d="M13.8,4c0-0.422,0.222-0.813,0.583-1.029L16.002,2H4C3.447,2,3,2.447,3,3v2h11.347
		C14.008,4.779,13.8,4.406,13.8,4z M15,4l5,3V5c2.757,0,5,2.243,5,5h2c0-3.859-3.141-7-7-7V1L15,4z M6.2,20
		c0,0.348,0.058,0.68,0.145,1H10V11c0-1.104,0.896-2,2-2h7V7.799L16.002,6H3v12.8h2C5.662,18.8,6.2,19.338,6.2,20z M23.8,10H12
		c-0.553,0-1,0.447-1,1v2h16v-1.8h-2C24.338,11.2,23.8,10.662,23.8,10z M15,26l-5-3v2c-2.757,0-5-2.243-5-5H3c0,3.859,3.141,7,7,7v2
		L15,26z M11,22.201l4.617,2.77C15.979,25.188,16.2,25.578,16.2,26s-0.222,0.813-0.583,1.029L12.332,29H26c0.553,0,1-0.447,1-1V14
		H11V22.201z"/>
</g>
</svg>
