<?xml version="1.0" encoding="utf-8"?>
<!-- Generator: Adobe Illustrator 15.0.0, SVG Export Plug-In . SVG Version: 6.00 Build 0)  -->
<!DOCTYPE svg PUBLIC "-//W3C//DTD SVG 1.1//EN" "http://www.w3.org/Graphics/SVG/1.1/DTD/svg11.dtd">
<svg version="1.1" xmlns="http://www.w3.org/2000/svg" xmlns:xlink="http://www.w3.org/1999/xlink" x="0px" y="0px" width="30px"
	 height="30px" viewBox="0 0 30 30" enable-background="new 0 0 30 30" xml:space="preserve">
<g id="DO_NOT_EDIT_-_BOUNDING_BOX">
	<rect id="BOUNDING_BOX" fill="none" width="30" height="30"/>
</g>
<g id="PLACE_YOUR_GRAPHIC_HERE">
	<path opacity="0.3" d="M15,10.999c-1.656,0-3,1.344-3,3C12,15.656,13.344,17,15,17c1.657,0,3-1.344,3-3.001
		C18,12.343,16.657,10.999,15,10.999z M5,10.999c-1.656,0-3,1.344-3,3C2,15.656,3.344,17,5,17c1.657,0,3-1.344,3-3.001
		C8,12.343,6.657,10.999,5,10.999z M25,10.999c-1.656,0-3,1.344-3,3C22,15.656,23.344,17,25,17c1.657,0,3-1.344,3-3.001
		C28,12.343,26.657,10.999,25,10.999z"/>
	<path opacity="0.15" d="M25,19c-2.206,0-4-1.795-4-4.001c0-2.206,1.794-4,4-4s4,1.794,4,4C29,17.205,27.206,19,25,19z M15,19
		c-2.206,0-4-1.795-4-4.001c0-2.206,1.794-4,4-4c2.206,0,4,1.794,4,4C19,17.205,17.206,19,15,19z M5,19c-2.206,0-4-1.795-4-4.001
		c0-2.206,1.794-4,4-4s4,1.794,4,4C9,17.205,7.206,19,5,19z"/>
	<path opacity="0.15" d="M15,11.999c-1.656,0-3,1.344-3,3C12,16.656,13.344,18,15,18c1.657,0,3-1.344,3-3.001
		C18,13.343,16.657,11.999,15,11.999z M5,11.999c-1.656,0-3,1.344-3,3C2,16.656,3.344,18,5,18c1.657,0,3-1.344,3-3.001
		C8,13.343,6.657,11.999,5,11.999z M25,11.999c-1.656,0-3,1.344-3,3C22,16.656,23.344,18,25,18c1.657,0,3-1.344,3-3.001
		C28,13.343,26.657,11.999,25,11.999z"/>
	<path fill="#FFFFFF" d="M15,11.999c-1.656,0-3,1.344-3,3C12,16.656,13.344,18,15,18c1.657,0,3-1.344,3-3.001
		C18,13.343,16.657,11.999,15,11.999z M5,11.999c-1.656,0-3,1.344-3,3C2,16.656,3.344,18,5,18c1.657,0,3-1.344,3-3.001
		C8,13.343,6.657,11.999,5,11.999z M25,11.999c-1.656,0-3,1.344-3,3C22,16.656,23.344,18,25,18c1.657,0,3-1.344,3-3.001
		C28,13.343,26.657,11.999,25,11.999z"/>
	<rect y="-0.001" fill="none" width="30" height="30.001"/>
</g>
</svg>
