<?xml version="1.0" encoding="utf-8"?>
<!-- Generator: Adobe Illustrator 15.0.0, SVG Export Plug-In . SVG Version: 6.00 Build 0)  -->
<!DOCTYPE svg PUBLIC "-//W3C//DTD SVG 1.1//EN" "http://www.w3.org/Graphics/SVG/1.1/DTD/svg11.dtd">
<svg version="1.1" xmlns="http://www.w3.org/2000/svg" xmlns:xlink="http://www.w3.org/1999/xlink" x="0px" y="0px" width="30px"
	 height="30px" viewBox="0 0 30 30" enable-background="new 0 0 30 30" xml:space="preserve">
<g id="DO_NOT_EDIT_-_BOUNDING_BOX">
	<rect id="BOUNDING_BOX" fill="none" width="30" height="30"/>
</g>
<g id="PLACE_YOUR_GRAPHIC_HERE">
	<path opacity="0.3" d="M24.625,19.688h-1.75v-2.625H7.125v2.625h-1.75v-2.625H1v6.125c0,0.962,0.788,1.75,1.75,1.75h24.5
		c0.962,0,1.75-0.788,1.75-1.75v-6.125h-4.375V19.688z M27.25,7.438h-0.875V4.719c0-0.911-0.745-1.656-1.657-1.656H6.157
		C5.245,3.063,4.5,3.808,4.5,4.719v2.719H2.75C1.788,7.438,1,8.226,1,9.188v6.125h28V9.188C29,8.226,28.212,7.438,27.25,7.438z
		 M24.625,7.438H6.25V4.813h18.375V7.438z"/>
	<path opacity="0.15" d="M2.75,26.938c-1.517,0-2.75-1.233-2.75-2.75v-6.125c0-0.377,0-1.373,0-1.75v-6.125
		c0-1.517,1.233-2.75,2.75-2.75H3.5V5.719c0-1.465,1.192-2.656,2.657-2.656h18.561c1.465,0,2.657,1.191,2.657,2.656V7.44
		C28.834,7.506,30,8.713,30,10.188v6.125c0,0.377,0,1.373,0,1.75v6.125c0,1.517-1.233,2.75-2.75,2.75H2.75z M23.625,7.438V6.813
		H7.25v0.625H23.625z"/>
	<path opacity="0.15" d="M24.625,20.688h-1.75v-2.625H7.125v2.625h-1.75v-2.625H1v6.125c0,0.962,0.788,1.75,1.75,1.75h24.5
		c0.962,0,1.75-0.788,1.75-1.75v-6.125h-4.375V20.688z M27.25,8.438h-0.875V5.719c0-0.911-0.745-1.656-1.657-1.656H6.157
		C5.245,4.063,4.5,4.808,4.5,5.719v2.719H2.75C1.788,8.438,1,9.226,1,10.188v6.125h28v-6.125C29,9.226,28.212,8.438,27.25,8.438z
		 M24.625,8.438H6.25V5.813h18.375V8.438z"/>
	<path fill="#FFFFFF" d="M24.625,20.688h-1.75v-2.625H7.125v2.625h-1.75v-2.625H1v6.125c0,0.962,0.788,1.75,1.75,1.75h24.5
		c0.962,0,1.75-0.788,1.75-1.75v-6.125h-4.375V20.688z M27.25,8.438h-0.875V5.719c0-0.911-0.745-1.656-1.657-1.656H6.157
		C5.245,4.063,4.5,4.808,4.5,5.719v2.719H2.75C1.788,8.438,1,9.226,1,10.188v6.125h28v-6.125C29,9.226,28.212,8.438,27.25,8.438z
		 M24.625,8.438H6.25V5.813h18.375V8.438z"/>
</g>
</svg>
