<?xml version="1.0" encoding="utf-8"?>
<!-- Generator: Adobe Illustrator 15.0.0, SVG Export Plug-In . SVG Version: 6.00 Build 0)  -->
<!DOCTYPE svg PUBLIC "-//W3C//DTD SVG 1.1//EN" "http://www.w3.org/Graphics/SVG/1.1/DTD/svg11.dtd">
<svg version="1.1" xmlns="http://www.w3.org/2000/svg" xmlns:xlink="http://www.w3.org/1999/xlink" x="0px" y="0px" width="30px"
	 height="30px" viewBox="0 0 30 30" enable-background="new 0 0 30 30" xml:space="preserve">
<g id="DO_NOT_EDIT_-_BOUNDING_BOX">
	<rect id="BOUNDING_BOX" fill="none" width="30" height="30"/>
</g>
<g id="PLACE_YOUR_GRAPHIC_HERE">
	<g>
		<path opacity="0.3" d="M25,11H15V8c0-1.656-1.344-3-3-3H6C4.342,5,3,6.344,3,8v3h2V8c0-0.551,0.447-1,1-1h6c0.551,0,1,0.449,1,1v3
			c-1.104,0-2,0.896-2,2v8c0,1.104,0.896,2,2,2h12c1.104,0,2-0.896,2-2v-8C27,11.896,26.104,11,25,11z M20,18.506V20
			c0,0.553-0.447,1-1,1s-1-0.447-1-1v-1.494c-0.738-0.369-1.25-1.125-1.25-2.006c0-1.242,1.008-2.25,2.25-2.25s2.25,1.008,2.25,2.25
			C21.25,17.381,20.738,18.137,20,18.506z"/>
		<path opacity="0.15" d="M13,25c-1.654,0-3-1.346-3-3v-8c0-1.304,0.836-2.416,2-2.829V9H6v3c0,0.552-0.448,1-1,1H3
			c-0.552,0-1-0.448-1-1V9c0-2.206,1.794-4,4-4h6c2.206,0,4,1.794,4,4v2h9c1.654,0,3,1.346,3,3v8c0,1.654-1.346,3-3,3H13z"/>
		<path opacity="0.15" d="M25,12H15V9c0-1.656-1.344-3-3-3H6C4.342,6,3,7.344,3,9v3h2V9c0-0.551,0.447-1,1-1h6c0.551,0,1,0.449,1,1
			v3c-1.104,0-2,0.896-2,2v8c0,1.104,0.896,2,2,2h12c1.104,0,2-0.896,2-2v-8C27,12.896,26.104,12,25,12z M20,19.506V21
			c0,0.553-0.447,1-1,1s-1-0.447-1-1v-1.494c-0.738-0.369-1.25-1.125-1.25-2.006c0-1.242,1.008-2.25,2.25-2.25s2.25,1.008,2.25,2.25
			C21.25,18.381,20.738,19.137,20,19.506z"/>
		<path fill="#FFFFFF" d="M25,12H15V9c0-1.656-1.344-3-3-3H6C4.342,6,3,7.344,3,9v3h2V9c0-0.551,0.447-1,1-1h6c0.551,0,1,0.449,1,1
			v3c-1.104,0-2,0.896-2,2v8c0,1.104,0.896,2,2,2h12c1.104,0,2-0.896,2-2v-8C27,12.896,26.104,12,25,12z M20,19.506V21
			c0,0.553-0.447,1-1,1s-1-0.447-1-1v-1.494c-0.738-0.369-1.25-1.125-1.25-2.006c0-1.242,1.008-2.25,2.25-2.25s2.25,1.008,2.25,2.25
			C21.25,18.381,20.738,19.137,20,19.506z"/>
		<rect fill="none" width="30" height="30"/>
	</g>
</g>
</svg>
