<?xml version="1.0" encoding="utf-8"?>
<!-- Generator: Adobe Illustrator 17.1.0, SVG Export Plug-In . SVG Version: 6.00 Build 0)  -->
<!DOCTYPE svg PUBLIC "-//W3C//DTD SVG 1.1//EN" "http://www.w3.org/Graphics/SVG/1.1/DTD/svg11.dtd" [
	<!ENTITY ns_extend "http://ns.adobe.com/Extensibility/1.0/">
	<!ENTITY ns_ai "http://ns.adobe.com/AdobeIllustrator/10.0/">
	<!ENTITY ns_graphs "http://ns.adobe.com/Graphs/1.0/">
	<!ENTITY ns_vars "http://ns.adobe.com/Variables/1.0/">
	<!ENTITY ns_imrep "http://ns.adobe.com/ImageReplacement/1.0/">
	<!ENTITY ns_sfw "http://ns.adobe.com/SaveForWeb/1.0/">
	<!ENTITY ns_custom "http://ns.adobe.com/GenericCustomNamespace/1.0/">
	<!ENTITY ns_adobe_xpath "http://ns.adobe.com/XPath/1.0/">
]>
<svg version="1.1" id="图层_1" xmlns:x="&ns_extend;" xmlns:i="&ns_ai;" xmlns:graph="&ns_graphs;"
	 xmlns="http://www.w3.org/2000/svg" xmlns:xlink="http://www.w3.org/1999/xlink" x="0px" y="0px" width="30px" height="30px"
	 viewBox="0 0 30 30" enable-background="new 0 0 30 30" xml:space="preserve">
<metadata>
	<sfw  xmlns="&ns_sfw;">
		<slices></slices>
		<sliceSourceBounds  height="30" width="30" y="86" x="234" bottomLeftOrigin="true"></sliceSourceBounds>
	</sfw>
</metadata>
<g id="DO_NOT_EDIT_-_BOUNDING_BOX">
	<rect id="BOUNDING_BOX" fill="none" width="30" height="30"/>
</g>
<path fill="#FFFFFF" d="M15,3.212c-7.096,0-12.845,5.751-12.845,12.845S7.904,28.902,15,28.902c7.095,0,12.845-5.751,12.845-12.845
	S22.095,3.212,15,3.212z M22.513,10.292l-4.673,8.133c-0.113,0.196-0.275,0.359-0.473,0.473l-8.133,4.673
	C8.732,23.86,8.1,23.775,7.69,23.366c-0.409-0.409-0.493-1.041-0.205-1.543l4.673-8.133c0.113-0.197,0.275-0.359,0.473-0.473
	l8.133-4.673c0.502-0.289,1.135-0.205,1.544,0.205C22.718,9.157,22.802,9.79,22.513,10.292z M15.699,15.358
	c0.386,0.386,0.386,1.011,0,1.398c-0.386,0.386-1.011,0.386-1.398,0c-0.386-0.386-0.386-1.011,0-1.398
	C14.687,14.972,15.313,14.972,15.699,15.358z"/>
<linearGradient id="SVGID_1_" gradientUnits="userSpaceOnUse" x1="15" y1="27.845" x2="15" y2="2.155">
	<stop  offset="0" style="stop-color:#636363"/>
	<stop  offset="1" style="stop-color:#000000"/>
</linearGradient>
<path fill="url(#SVGID_1_)" d="M15,2.155C7.904,2.155,2.155,7.905,2.155,15S7.904,27.845,15,27.845
	c7.095,0,12.845-5.751,12.845-12.845S22.095,2.155,15,2.155z M22.513,9.235l-4.673,8.133c-0.113,0.196-0.275,0.359-0.473,0.473
	l-8.133,4.673C8.732,22.803,8.1,22.718,7.69,22.309c-0.409-0.409-0.493-1.041-0.205-1.543l4.673-8.133
	c0.113-0.197,0.275-0.359,0.473-0.473l8.133-4.673c0.502-0.289,1.135-0.205,1.544,0.205C22.718,8.101,22.802,8.733,22.513,9.235z
	 M15.699,14.301c0.386,0.386,0.386,1.011,0,1.398c-0.386,0.386-1.011,0.386-1.398,0c-0.386-0.386-0.386-1.011,0-1.398
	C14.687,13.915,15.313,13.915,15.699,14.301z"/>
</svg>
