<?xml version="1.0" encoding="utf-8"?>
<!-- Generator: Adobe Illustrator 17.0.0, SVG Export Plug-In . SVG Version: 6.00 Build 0)  -->
<!DOCTYPE svg PUBLIC "-//W3C//DTD SVG 1.1//EN" "http://www.w3.org/Graphics/SVG/1.1/DTD/svg11.dtd">
<svg version="1.1" id="图层_1" xmlns="http://www.w3.org/2000/svg" xmlns:xlink="http://www.w3.org/1999/xlink" x="0px" y="0px"
	 width="30px" height="30px" viewBox="0 0 30 30" enable-background="new 0 0 30 30" xml:space="preserve">
<g id="DO_NOT_EDIT_-_BOUNDING_BOX">
	<rect id="BOUNDING_BOX" fill="none" width="30" height="30"/>
</g>
<g>
	<path opacity="0.15" enable-background="new    " d="M15,29.667C6.912,29.667,0.333,23.088,0.333,15S6.912,0.333,15,0.333
		S29.667,6.912,29.667,15S23.088,29.667,15,29.667z"/>
	<circle opacity="0.15" enable-background="new    " cx="15" cy="15" r="13.619"/>
	<path opacity="0.3" enable-background="new    " d="M15,0.381C7.477,0.381,1.381,6.478,1.381,14S7.477,27.619,15,27.619
		c7.522,0,13.619-6.097,13.619-13.619S22.522,0.381,15,0.381z M16,25.473V24.5c0-0.552-0.448-1-1-1s-1,0.448-1,1v0.973
		C8.443,24.992,4.008,20.557,3.527,15H4.5c0.552,0,1-0.448,1-1s-0.448-1-1-1H3.527C4.008,7.443,8.443,3.008,14,2.527V3.5
		c0,0.552,0.448,1,1,1s1-0.448,1-1V2.527C21.557,3.008,25.992,7.443,26.473,13H25.5c-0.552,0-1,0.448-1,1s0.448,1,1,1h0.973
		C25.992,20.557,21.557,24.992,16,25.473z M17.324,15.937l3.823-6.653c0.235-0.411,0.167-0.929-0.168-1.263
		s-0.853-0.403-1.263-0.167l-6.654,3.823c-0.161,0.092-0.294,0.225-0.386,0.386l-3.823,6.654c-0.236,0.411-0.167,0.928,0.167,1.263
		c0.335,0.335,0.852,0.404,1.263,0.168l6.653-3.823C17.098,16.231,17.231,16.098,17.324,15.937z M14.259,14.741
		c-0.409-0.409-0.409-1.072,0-1.482c0.409-0.409,1.072-0.409,1.482,0c0.409,0.409,0.409,1.072,0,1.482
		C15.332,15.15,14.668,15.15,14.259,14.741z"/>
	<path fill="#FFFFFF" d="M15,1.381C7.477,1.381,1.381,7.478,1.381,15S7.477,28.619,15,28.619c7.522,0,13.619-6.097,13.619-13.619
		S22.522,1.381,15,1.381z M16,26.473V25.5c0-0.552-0.448-1-1-1s-1,0.448-1,1v0.973C8.443,25.992,4.008,21.557,3.527,16H4.5
		c0.552,0,1-0.448,1-1s-0.448-1-1-1H3.527C4.008,8.443,8.443,4.008,14,3.527V4.5c0,0.552,0.448,1,1,1s1-0.448,1-1V3.527
		C21.557,4.008,25.992,8.443,26.473,14H25.5c-0.552,0-1,0.448-1,1s0.448,1,1,1h0.973C25.992,21.557,21.557,25.992,16,26.473z
		 M17.324,16.937l3.823-6.653c0.235-0.411,0.167-0.929-0.168-1.263s-0.853-0.403-1.263-0.167l-6.654,3.823
		c-0.161,0.092-0.294,0.225-0.386,0.386l-3.823,6.654c-0.236,0.411-0.167,0.928,0.167,1.263c0.335,0.335,0.852,0.404,1.263,0.168
		l6.653-3.823C17.098,17.231,17.231,17.098,17.324,16.937z M14.259,15.741c-0.409-0.409-0.409-1.072,0-1.482
		c0.409-0.409,1.072-0.409,1.482,0c0.409,0.409,0.409,1.072,0,1.482C15.332,16.15,14.668,16.15,14.259,15.741z"/>
</g>
</svg>
