<?xml version="1.0" encoding="utf-8"?>
<!-- Generator: Adobe Illustrator 17.0.0, SVG Export Plug-In . SVG Version: 6.00 Build 0)  -->
<!DOCTYPE svg PUBLIC "-//W3C//DTD SVG 1.1//EN" "http://www.w3.org/Graphics/SVG/1.1/DTD/svg11.dtd">
<svg version="1.1" id="图层_1" xmlns="http://www.w3.org/2000/svg" xmlns:xlink="http://www.w3.org/1999/xlink" x="0px" y="0px"
	 width="30px" height="30px" viewBox="0 0 30 30" enable-background="new 0 0 30 30" xml:space="preserve">
<g id="DO_NOT_EDIT_-_BOUNDING_BOX">
	<rect id="BOUNDING_BOX" fill="none" width="30" height="30"/>
</g>
<g>
	<path opacity="0.15" enable-background="new    " d="M15,28.834C7.372,28.834,1.166,22.628,1.166,15S7.372,1.166,15,1.166
		S28.834,7.372,28.834,15S22.628,28.834,15,28.834z"/>
	<path opacity="0.3" enable-background="new    " d="M15,1.212c-7.096,0-12.845,5.751-12.845,12.845S7.904,26.902,15,26.902
		c7.095,0,12.845-5.751,12.845-12.845S22.095,1.212,15,1.212z M22.513,8.292l-4.673,8.133c-0.113,0.196-0.275,0.359-0.473,0.473
		l-8.133,4.673C8.732,21.86,8.1,21.775,7.69,21.366c-0.409-0.409-0.493-1.041-0.205-1.543l4.673-8.133
		c0.113-0.197,0.275-0.359,0.473-0.473l8.133-4.673c0.502-0.289,1.135-0.205,1.544,0.205C22.718,7.157,22.802,7.79,22.513,8.292z
		 M15.699,13.358c0.386,0.386,0.386,1.011,0,1.398c-0.386,0.386-1.011,0.386-1.398,0c-0.386-0.386-0.386-1.011,0-1.398
		C14.687,12.972,15.313,12.972,15.699,13.358z"/>
	<path fill="#FFFFFF" d="M15,2.155C7.904,2.155,2.155,7.905,2.155,15S7.904,27.845,15,27.845c7.095,0,12.845-5.751,12.845-12.845
		S22.095,2.155,15,2.155z M22.513,9.235l-4.673,8.133c-0.113,0.196-0.275,0.359-0.473,0.473l-8.133,4.673
		C8.732,22.803,8.1,22.718,7.69,22.309c-0.409-0.409-0.493-1.041-0.205-1.543l4.673-8.133c0.113-0.197,0.275-0.359,0.473-0.473
		l8.133-4.673c0.502-0.289,1.135-0.205,1.544,0.205C22.718,8.101,22.802,8.733,22.513,9.235z M15.699,14.301
		c0.386,0.386,0.386,1.011,0,1.398c-0.386,0.386-1.011,0.386-1.398,0c-0.386-0.386-0.386-1.011,0-1.398
		C14.687,13.915,15.313,13.915,15.699,14.301z"/>
</g>
</svg>
