<?xml version="1.0" encoding="utf-8"?>
<!-- Generator: Adobe Illustrator 15.0.0, SVG Export Plug-In . SVG Version: 6.00 Build 0)  -->
<!DOCTYPE svg PUBLIC "-//W3C//DTD SVG 1.1//EN" "http://www.w3.org/Graphics/SVG/1.1/DTD/svg11.dtd">
<svg version="1.1" id="Ebene_1" xmlns="http://www.w3.org/2000/svg" xmlns:xlink="http://www.w3.org/1999/xlink" x="0px" y="0px"
	 width="30px" height="30px" viewBox="0 0 30 30" enable-background="new 0 0 30 30" xml:space="preserve">
<g>
	<g id="DO_NOT_EDIT_-_BOUNDING_BOX">
		<rect id="BOUNDING_BOX" fill="none" width="30" height="30"/>
	</g>
	<rect fill="none" width="30" height="30"/>
	<g>
		<path opacity="0.15" fill="#FFFFFF" enable-background="new    " d="M4.118,28.396c-0.411,0-0.775-0.178-1.001-0.49
			c-0.144-0.199-0.353-0.631-0.141-1.268l1.998-5.996c0.202-0.602,0.692-1.393,1.14-1.842L17.461,7.462
			c0.168-0.17,0.891-0.895,1.218-1.226l1.281-1.281c0.505-0.507,1.181-0.786,1.897-0.786c0.719,0,1.393,0.279,1.898,0.783
			l2.573,2.574c0.506,0.506,0.785,1.18,0.784,1.898c0,0.721-0.278,1.393-0.785,1.898l-1.276,1.281
			c-0.161,0.161-1.061,1.063-1.223,1.227L12.485,25.167c-0.455,0.451-1.247,0.943-1.845,1.141l-5.993,1.998
			C4.469,28.362,4.289,28.396,4.118,28.396L4.118,28.396z"/>
		<path opacity="0.15" fill="#FFFFFF" enable-background="new    " d="M6.727,19.409c-0.354,0.355-0.772,1.033-0.931,1.506
			l-1.997,5.994c-0.157,0.475,0.101,0.732,0.575,0.574l5.992-1.996c0.475-0.16,1.152-0.58,1.508-0.932l11.344-11.337l-5.146-5.146
			L6.727,19.409z M9.646,24.21l-2.729,0.953l-0.794-0.797l0.953-2.732l0.536-0.537l2.57,2.578L9.646,24.21z M25.717,8.14
			l-2.572-2.575c-0.709-0.706-1.866-0.706-2.571,0l-1.282,1.283l5.147,5.145l1.278-1.282C26.425,10.005,26.425,8.847,25.717,8.14z"
			/>
		<path fill="#FFFFFF" d="M6.727,19.409c-0.354,0.355-0.772,1.033-0.931,1.506l-1.997,5.994c-0.157,0.475,0.101,0.732,0.575,0.574
			l5.992-1.996c0.475-0.16,1.152-0.58,1.508-0.932l11.344-11.337l-5.146-5.146L6.727,19.409z M9.646,24.21l-2.729,0.953
			l-0.794-0.797l0.953-2.732l0.536-0.537l2.57,2.578L9.646,24.21z M25.717,8.14l-2.572-2.575c-0.709-0.706-1.866-0.706-2.571,0
			l-1.282,1.283l5.147,5.145l1.278-1.282C26.425,10.005,26.425,8.847,25.717,8.14z"/>
		
			<linearGradient id="SVGID_1_" gradientUnits="userSpaceOnUse" x1="-247.0396" y1="90.6748" x2="-247.0396" y2="113.1689" gradientTransform="matrix(1 0 0 -1 262.04 117.3398)">
			<stop  offset="0" style="stop-color:#636363"/>
			<stop  offset="1" style="stop-color:#000000"/>
		</linearGradient>
		<path fill="url(#SVGID_1_)" d="M6.727,18.544c-0.354,0.355-0.772,1.033-0.931,1.508l-1.997,5.992
			c-0.157,0.475,0.101,0.734,0.575,0.574l5.992-1.996c0.475-0.16,1.152-0.578,1.508-0.93l11.344-11.339l-5.146-5.146L6.727,18.544z
			 M9.646,23.347l-2.729,0.951l-0.794-0.799l0.953-2.729l0.536-0.541l2.57,2.58L9.646,23.347z M25.717,7.274l-2.572-2.573
			c-0.709-0.707-1.866-0.707-2.571,0l-1.282,1.281l5.147,5.146l1.278-1.282C26.425,9.139,26.425,7.982,25.717,7.274z"/>
	</g>
</g>
</svg>
