<?xml version="1.0" encoding="utf-8"?>
<!-- Generator: Adobe Illustrator 15.0.0, SVG Export Plug-In . SVG Version: 6.00 Build 0)  -->
<!DOCTYPE svg PUBLIC "-//W3C//DTD SVG 1.1//EN" "http://www.w3.org/Graphics/SVG/1.1/DTD/svg11.dtd">
<svg version="1.1" xmlns="http://www.w3.org/2000/svg" xmlns:xlink="http://www.w3.org/1999/xlink" x="0px" y="0px" width="30px"
	 height="30px" viewBox="0 0 30 30" enable-background="new 0 0 30 30" xml:space="preserve">
<g id="DO_NOT_EDIT_-_BOUNDING_BOX">
	<rect id="BOUNDING_BOX" fill="none" width="30" height="30"/>
</g>
<g id="PLACE_YOUR_GRAPHIC_HERE">
	<path opacity="0.3" d="M28.021,6.762c-1.051-2.914-2.857-5.035-6.768-6.043c-2.918-0.756-4.928-0.738-6.289-0.709
		c-1.363-0.029-3.373-0.047-6.293,0.709C4.764,1.727,2.955,3.848,1.908,6.762c0,0-2.043,6.342,0,14.479
		c0.752,3.004,2.855,5.035,6.764,6.043c2.92,0.752,4.93,0.736,6.293,0.705c1.361,0.031,3.371,0.047,6.289-0.705
		c3.91-1.008,5.869-3.082,6.768-6.043C30.223,13.979,28.021,6.762,28.021,6.762z M13.863,3.5h2.273c0.918,0,1.666,0.748,1.666,1.668
		l-0.58,9.119c0,0.902-0.748,1.65-1.666,1.65h-1.113c-0.92,0-1.666-0.748-1.668-1.67l-0.58-9.084
		C12.195,4.248,12.943,3.5,13.863,3.5z M15.002,24.5c-1.723,0-3.125-1.402-3.125-3.125c0-1.721,1.402-3.121,3.125-3.121
		c1.719,0,3.119,1.4,3.119,3.121C18.121,23.098,16.721,24.5,15.002,24.5z"/>
	<rect fill="none" width="30" height="30"/>
	<rect fill="none" width="30" height="30"/>
	<rect fill="none" width="30" height="30"/>
	<rect fill="none" width="30" height="30"/>
	<path opacity="0.15" d="M15.784,29.999c-0.304,0-0.584-0.005-0.842-0.011c-0.212,0.006-0.493,0.011-0.797,0.011
		c-1.21,0-3.12-0.077-5.722-0.747c-4.165-1.074-6.613-3.288-7.484-6.769C-1.15,14.165,0.869,7.725,0.957,7.455
		c1.312-3.652,3.611-5.71,7.466-6.705C11.022,0.078,12.941,0,14.158,0c0.299,0,0.575,0.005,0.829,0.01
		C15.197,0.004,15.472,0,15.771,0c1.216,0,3.134,0.078,5.734,0.751c3.852,0.993,6.151,3.051,7.457,6.672
		c0.109,0.354,2.28,7.641,0.017,15.108c-1.077,3.549-3.452,5.685-7.475,6.722C18.903,29.922,16.994,29.999,15.784,29.999
		C15.785,29.999,15.785,29.999,15.784,29.999z"/>
	<path opacity="0.15" d="M28.021,7.762c-1.051-2.914-2.857-5.035-6.768-6.043c-2.918-0.756-4.928-0.738-6.289-0.709
		c-1.363-0.029-3.373-0.047-6.293,0.709C4.764,2.727,2.955,4.848,1.908,7.762c0,0-2.043,6.342,0,14.479
		c0.752,3.004,2.855,5.035,6.764,6.043c2.92,0.752,4.93,0.736,6.293,0.705c1.361,0.031,3.371,0.047,6.289-0.705
		c3.91-1.008,5.869-3.082,6.768-6.043C30.223,14.979,28.021,7.762,28.021,7.762z M13.863,4.5h2.273c0.918,0,1.666,0.748,1.666,1.668
		l-0.58,9.119c0,0.902-0.748,1.65-1.666,1.65h-1.113c-0.92,0-1.666-0.748-1.668-1.67l-0.58-9.084
		C12.195,5.248,12.943,4.5,13.863,4.5z M15.002,25.5c-1.723,0-3.125-1.402-3.125-3.125c0-1.721,1.402-3.121,3.125-3.121
		c1.719,0,3.119,1.4,3.119,3.121C18.121,24.098,16.721,25.5,15.002,25.5z"/>
	<path fill="#FFFFFF" d="M28.021,7.762c-1.051-2.914-2.857-5.035-6.768-6.043c-2.918-0.756-4.928-0.738-6.289-0.709
		c-1.363-0.029-3.373-0.047-6.293,0.709C4.764,2.727,2.955,4.848,1.908,7.762c0,0-2.043,6.342,0,14.479
		c0.752,3.004,2.855,5.035,6.764,6.043c2.92,0.752,4.93,0.736,6.293,0.705c1.361,0.031,3.371,0.047,6.289-0.705
		c3.91-1.008,5.869-3.082,6.768-6.043C30.223,14.979,28.021,7.762,28.021,7.762z M13.863,4.5h2.273c0.918,0,1.666,0.748,1.666,1.668
		l-0.58,9.119c0,0.902-0.748,1.65-1.666,1.65h-1.113c-0.92,0-1.666-0.748-1.668-1.67l-0.58-9.084
		C12.195,5.248,12.943,4.5,13.863,4.5z M15.002,25.5c-1.723,0-3.125-1.402-3.125-3.125c0-1.721,1.402-3.121,3.125-3.121
		c1.719,0,3.119,1.4,3.119,3.121C18.121,24.098,16.721,25.5,15.002,25.5z"/>
</g>
</svg>
