<?xml version="1.0" encoding="utf-8"?>
<!-- Generator: Adobe Illustrator 16.0.0, SVG Export Plug-In . SVG Version: 6.00 Build 0)  -->
<!DOCTYPE svg PUBLIC "-//W3C//DTD SVG 1.1//EN" "http://www.w3.org/Graphics/SVG/1.1/DTD/svg11.dtd">
<svg version="1.1" id="图层_1" xmlns="http://www.w3.org/2000/svg" xmlns:xlink="http://www.w3.org/1999/xlink" x="0px" y="0px"
	 width="30px" height="30px" viewBox="0 0 30 30" enable-background="new 0 0 30 30" xml:space="preserve">
<g>
	<path fill="#FFFFFF" d="M23,6H7c-2.75,0-5,2.25-5,5v8c0,2.75,2.25,5,5,5h18l3,3V11C28,8.25,25.75,6,23,6z M19,20H8
		c-0.553,0-1-0.447-1-1s0.447-1,1-1h11c0.553,0,1,0.447,1,1S19.553,20,19,20z M22,16H8c-0.553,0-1-0.447-1-1c0-0.553,0.447-1,1-1h14
		c0.553,0,1,0.447,1,1C23,15.553,22.553,16,22,16z M22,12H8c-0.553,0-1-0.447-1-1s0.447-1,1-1h14c0.553,0,1,0.447,1,1
		S22.553,12,22,12z"/>
	<g id="DO_NOT_EDIT_-_BOUNDING_BOX">
		<rect id="BOUNDING_BOX" fill="none" width="30" height="30"/>
	</g>
	<rect fill="none" width="30" height="30"/>
	<path opacity="0.15" fill="#FFFFFF" enable-background="new    " d="M23,6H7c-2.75,0-5,2.25-5,5v8c0,2.75,2.25,5,5,5h18l3,3V11
		C28,8.25,25.75,6,23,6z M19,20H8c-0.553,0-1-0.447-1-1s0.447-1,1-1h11c0.553,0,1,0.447,1,1S19.553,20,19,20z M22,16H8
		c-0.553,0-1-0.447-1-1c0-0.553,0.447-1,1-1h14c0.553,0,1,0.447,1,1C23,15.553,22.553,16,22,16z M22,12H8c-0.553,0-1-0.447-1-1
		s0.447-1,1-1h14c0.553,0,1,0.447,1,1S22.553,12,22,12z"/>
	<linearGradient id="SVGID_1_" gradientUnits="userSpaceOnUse" x1="15.0005" y1="26" x2="15.0005" y2="5.0005">
		<stop  offset="0" style="stop-color:#636363"/>
		<stop  offset="1" style="stop-color:#000000"/>
	</linearGradient>
	<path fill="url(#SVGID_1_)" d="M23,5H7c-2.75,0-5,2.25-5,5v8c0,2.75,2.25,5,5,5h18l3,3V10C28,7.25,25.75,5,23,5z M19,19H8
		c-0.553,0-1-0.447-1-1s0.447-1,1-1h11c0.553,0,1,0.447,1,1S19.553,19,19,19z M22,15H8c-0.553,0-1-0.447-1-1s0.447-1,1-1h14
		c0.553,0,1,0.447,1,1S22.553,15,22,15z M22,11H8c-0.553,0-1-0.447-1-1s0.447-1,1-1h14c0.553,0,1,0.447,1,1S22.553,11,22,11z"/>
</g>
</svg>
