<?xml version="1.0" encoding="utf-8"?>
<!-- Generator: Adobe Illustrator 16.0.0, SVG Export Plug-In . SVG Version: 6.00 Build 0)  -->
<!DOCTYPE svg PUBLIC "-//W3C//DTD SVG 1.1//EN" "http://www.w3.org/Graphics/SVG/1.1/DTD/svg11.dtd">
<svg version="1.1"
	 id="svg2" xmlns:dc="http://purl.org/dc/elements/1.1/" xmlns:cc="http://creativecommons.org/ns#" xmlns:rdf="http://www.w3.org/1999/02/22-rdf-syntax-ns#" xmlns:svg="http://www.w3.org/2000/svg" xmlns:sodipodi="http://sodipodi.sourceforge.net/DTD/sodipodi-0.dtd" xmlns:inkscape="http://www.inkscape.org/namespaces/inkscape" sodipodi:docname="internet.svg" inkscape:version="0.48.2 r9819"
	 xmlns="http://www.w3.org/2000/svg" xmlns:xlink="http://www.w3.org/1999/xlink" x="0px" y="0px" width="30px" height="30px"
	 viewBox="0 0 30 30" enable-background="new 0 0 30 30" xml:space="preserve">
<sodipodi:namedview  inkscape:cy="15" inkscape:cx="15" inkscape:zoom="7.8666667" showgrid="false" id="namedview21" guidetolerance="10" gridtolerance="10" objecttolerance="10" borderopacity="1" bordercolor="#666666" pagecolor="#ffffff" inkscape:current-layer="svg2" inkscape:window-maximized="0" inkscape:window-y="0" inkscape:pageopacity="0" inkscape:window-x="0" inkscape:window-height="480" inkscape:window-width="640" inkscape:pageshadow="2">
	</sodipodi:namedview>
<g>
	<g id="DO_NOT_EDIT_-_BOUNDING_BOX">
		<rect id="BOUNDING_BOX" fill="none" width="30" height="30"/>
	</g>
	<path id="path9" fill="#FFFFFF" d="M15,3C7.822,3,2,8.822,2,15.996C2,23.18,7.822,29,15,29c7.182,0,13-5.82,13-13.004
		C28,8.822,22.182,3,15,3z M12.152,20.549c-0.252,0.506-0.811,0.695-0.76,1.621c0.08,1.486-1.115,1.367-1.391,2.381
		c-0.268,0.973-0.582,1.611-0.582,1.611c-0.783-0.43-1.51-0.949-2.168-1.541c0.178-0.949-0.141-3.287-0.527-3.549
		c-1.111-0.758-1.072-0.539-1.168-3.506c-0.053-1.646,2.736-1.178,3.338-0.523c0.576,0.627,0.48,1.539,2.156,2.24
		C11.525,19.48,12.406,20.043,12.152,20.549z M11.248,7.66c-0.592,0.215-0.824,0.176-1.232-0.094
		C9.443,7.184,8.197,8.203,8.967,8.563c0.262,0.121,0.734,0.162,1.482,0.418c1.193,0.412,1.539,1.119,0.848,1.305
		c-3.451,0.936-1.836,2.012-3.145,3.322C7.48,14.28,7.525,14.549,7.05,14.71c-0.582,0.192-0.676-0.654-1.225-0.678
		c-0.195-0.01-1.801,0.027-2.207,0.027c-0.057,0,0.012-0.432,0.012-0.432c0.552-2.697,2.046-5.051,4.12-6.709
		c0,0,2.146-1.627,3.949-2.037c0.797-0.18,2.383-0.533,2.277,0.016C13.861,5.49,11.844,7.449,11.248,7.66z M25.402,16.303
		c-0.721-0.131-1.191-2.002-1.965-1.416c-1.295,0.978,1.989,2.605,1.989,3.119s-0.694,1.268-0.993,1.51
		c-0.451,0.363-0.371,1.754-0.371,1.754c0,0.98-0.658,2.152-0.996,2.603c-0.34,0.448-1.81,2.125-2.666,1.09
		c-0.639-0.771-0.101-2.353-0.287-4.043c-0.066-0.606,0.049-2.334-2.551-2.647c-2.313-0.277-2.113-1.961-1.963-2.814
		c0.209-1.174,0.338-1.871,1.33-2.111c0.557-0.137,2.227-0.352,3.391,0.111c0.549,0.215,1.426,0.127,1.557-0.598
		c0.145-0.773-0.369-0.824-1.617-1.174c-1.121-0.316-2.182,0.631-3.092,0.629c-0.408,0-0.389-0.344-0.379-0.826
		c0.004-0.48,1.764-1.719,1.949-1.859c0.357-0.273,1.4-0.162,1.422-0.162c1.15,0.035,0.898-0.744,0.121-0.781
		C18.918,8.62,19.02,7.905,19.004,7.69c-0.018-0.217,0.199-0.762,1.246-0.789c0.34-0.01,1.672-0.064,2.033,0.039
		c0.09,0.068,0.586,0.5,0.586,0.5c1.951,1.797,3.283,4.254,3.645,7.018c0.021,0.416,0.068,0.854,0.053,0.987
		C26.533,15.684,26.053,16.424,25.402,16.303z"/>
	<g id="g11">
		<rect id="rect13" fill="none" width="30" height="30"/>
	</g>
	<path id="path17" opacity="0.15" enable-background="new    " d="M15,2C7.822,2,2,7.822,2,14.996C2,22.18,7.822,28,15,28
		c7.182,0,13-5.82,13-13.004C28,7.822,22.182,2,15,2z M12.152,19.549c-0.252,0.506-0.811,0.695-0.76,1.621
		c0.08,1.486-1.115,1.367-1.391,2.381c-0.268,0.973-0.582,1.611-0.582,1.611c-0.783-0.43-1.51-0.949-2.168-1.541
		c0.178-0.949-0.141-3.287-0.527-3.549c-1.111-0.758-1.072-0.539-1.168-3.506c-0.053-1.646,2.736-1.178,3.338-0.523
		c0.576,0.627,0.48,1.539,2.156,2.24C11.525,18.48,12.406,19.043,12.152,19.549z M11.248,6.66c-0.592,0.215-0.824,0.176-1.232-0.094
		C9.443,6.184,8.197,7.203,8.967,7.563c0.262,0.121,0.734,0.162,1.482,0.418c1.193,0.412,1.539,1.119,0.848,1.305
		c-3.451,0.936-1.836,2.012-3.145,3.322C7.48,13.28,7.525,13.549,7.05,13.71c-0.582,0.193-0.676-0.654-1.225-0.678
		c-0.195-0.01-1.801,0.027-2.207,0.027c-0.057,0,0.012-0.432,0.012-0.432C4.182,9.93,5.676,7.576,7.75,5.918
		c0,0,2.146-1.627,3.949-2.037c0.797-0.18,2.383-0.533,2.277,0.016C13.861,4.49,11.844,6.449,11.248,6.66z M25.402,15.303
		c-0.721-0.131-1.191-2.002-1.965-1.416c-1.295,0.977,1.989,2.605,1.989,3.119s-0.694,1.268-0.993,1.51
		c-0.451,0.363-0.371,1.754-0.371,1.754c0,0.98-0.658,2.152-0.996,2.603c-0.34,0.448-1.81,2.125-2.666,1.09
		c-0.639-0.771-0.101-2.353-0.287-4.043c-0.066-0.606,0.049-2.334-2.551-2.647c-2.313-0.277-2.113-1.961-1.963-2.814
		c0.209-1.174,0.338-1.871,1.33-2.111c0.557-0.137,2.227-0.352,3.391,0.111c0.549,0.215,1.426,0.127,1.557-0.598
		c0.145-0.773-0.369-0.824-1.617-1.174c-1.121-0.316-2.182,0.631-3.092,0.629c-0.408,0-0.389-0.344-0.379-0.826
		c0.004-0.48,1.764-1.719,1.949-1.859c0.357-0.273,1.4-0.162,1.422-0.162c1.15,0.035,0.898-0.744,0.121-0.781
		C18.918,7.62,19.02,6.905,19.004,6.69c-0.018-0.217,0.199-0.762,1.246-0.789c0.34-0.01,1.672-0.064,2.033,0.039
		c0.09,0.068,0.586,0.5,0.586,0.5c1.951,1.797,3.283,4.254,3.645,7.018c0.021,0.416,0.068,0.855,0.053,0.988
		C26.533,14.684,26.053,15.424,25.402,15.303z"/>
	<linearGradient id="path19_1_" gradientUnits="userSpaceOnUse" x1="15.0005" y1="28" x2="15.0005" y2="2.0005">
		<stop  offset="0" style="stop-color:#636363"/>
		<stop  offset="1" style="stop-color:#000000"/>
	</linearGradient>
	<path id="path19" fill="url(#path19_1_)" d="M15,2C7.822,2,2,7.822,2,14.996C2,22.18,7.822,28,15,28c7.182,0,13-5.82,13-13.004
		C28,7.822,22.182,2,15,2z M12.152,19.549c-0.252,0.506-0.811,0.695-0.76,1.621c0.08,1.486-1.115,1.367-1.391,2.381
		c-0.268,0.973-0.582,1.611-0.582,1.611c-0.783-0.43-1.51-0.949-2.168-1.541c0.178-0.949-0.141-3.287-0.527-3.549
		c-1.111-0.758-1.072-0.539-1.168-3.506c-0.053-1.646,2.736-1.178,3.338-0.523c0.576,0.627,0.48,1.539,2.156,2.24
		C11.525,18.48,12.406,19.043,12.152,19.549z M11.248,6.66c-0.592,0.215-0.824,0.176-1.232-0.094
		C9.443,6.184,8.197,7.203,8.967,7.563c0.262,0.121,0.734,0.162,1.482,0.418c1.193,0.412,1.539,1.119,0.848,1.305
		c-3.451,0.936-1.836,2.012-3.145,3.322C7.48,13.28,7.525,13.549,7.05,13.71c-0.582,0.193-0.676-0.654-1.225-0.678
		c-0.195-0.01-1.801,0.027-2.207,0.027c-0.057,0,0.012-0.432,0.012-0.432C4.182,9.93,5.676,7.576,7.75,5.918
		c0,0,2.146-1.627,3.949-2.037c0.797-0.18,2.383-0.533,2.277,0.016C13.861,4.49,11.844,6.449,11.248,6.66z M25.402,15.303
		c-0.721-0.131-1.191-2.002-1.965-1.416c-1.295,0.977,1.989,2.605,1.989,3.119s-0.694,1.268-0.993,1.51
		c-0.451,0.363-0.371,1.754-0.371,1.754c0,0.98-0.658,2.152-0.996,2.603c-0.34,0.448-1.81,2.125-2.666,1.09
		c-0.639-0.771-0.101-2.353-0.287-4.043c-0.066-0.606,0.049-2.334-2.551-2.647c-2.313-0.277-2.113-1.961-1.963-2.814
		c0.209-1.174,0.338-1.871,1.33-2.111c0.557-0.137,2.227-0.352,3.391,0.111c0.549,0.215,1.426,0.127,1.557-0.598
		c0.145-0.773-0.369-0.824-1.617-1.174c-1.121-0.316-2.182,0.631-3.092,0.629c-0.408,0-0.389-0.344-0.379-0.826
		c0.004-0.48,1.764-1.719,1.949-1.859c0.357-0.273,1.4-0.162,1.422-0.162c1.15,0.035,0.898-0.744,0.121-0.781
		C18.918,7.62,19.02,6.905,19.004,6.69c-0.018-0.217,0.199-0.762,1.246-0.789c0.34-0.01,1.672-0.064,2.033,0.039
		c0.09,0.068,0.586,0.5,0.586,0.5c1.951,1.797,3.283,4.254,3.645,7.018c0.021,0.416,0.068,0.855,0.053,0.988
		C26.533,14.684,26.053,15.424,25.402,15.303z"/>
</g>
</svg>
