<?xml version="1.0" encoding="utf-8"?>
<!-- Generator: Adobe Illustrator 17.0.0, SVG Export Plug-In . SVG Version: 6.00 Build 0)  -->
<!DOCTYPE svg PUBLIC "-//W3C//DTD SVG 1.1//EN" "http://www.w3.org/Graphics/SVG/1.1/DTD/svg11.dtd">
<svg version="1.1" id="图层_1" xmlns="http://www.w3.org/2000/svg" xmlns:xlink="http://www.w3.org/1999/xlink" x="0px" y="0px"
	 width="30px" height="30px" viewBox="0 0 30 30" enable-background="new 0 0 30 30" xml:space="preserve">
<rect fill="none" width="30" height="30"/>
<path fill-opacity="0.15" d="M10.05,23.229c-0.938,0-1.702-0.81-1.702-1.804v0.804c0,0.553-0.448,1-1,1H5.876
	c-0.462,0-0.864-0.317-0.972-0.767l-0.965-4.017c-0.053-0.221-0.029-0.45,0.064-0.652c-0.172-0.135-0.299-0.327-0.353-0.552
	l-0.965-4.017c-0.053-0.22-0.029-0.45,0.064-0.652c-0.172-0.136-0.3-0.327-0.354-0.552L1.43,8.005
	C1.358,7.707,1.427,7.393,1.617,7.152c0.189-0.24,0.479-0.381,0.785-0.381h4.946c0.55,0,0.996,0.444,1,0.993
	C8.349,7.648,8.37,7.531,8.413,7.418c0.147-0.389,0.52-0.647,0.936-0.647h18.25c0.416,0,0.789,0.258,0.936,0.647
	s0.037,0.829-0.274,1.104l-0.012,0.01c0.219,0.187,0.351,0.463,0.351,0.76v12.134c0,0.994-0.763,1.804-1.701,1.804H10.05z
	 M8.147,17.61c0.126,0.168,0.202,0.377,0.202,0.603v-1.204C8.348,17.234,8.273,17.443,8.147,17.61z M8.147,12.39
	c0.126,0.167,0.202,0.376,0.202,0.602v-1.205C8.348,12.013,8.273,12.222,8.147,12.39z M8.348,9.292c0-0.297,0.131-0.573,0.35-0.76
	l-0.011-0.01C8.47,8.33,8.351,8.059,8.348,7.78V9.292z"/>
<path fill-opacity="0.3" d="M9.348,8.292v12.134c0,0.442,0.316,0.803,0.702,0.803h16.846c0.386,0,0.702-0.361,0.702-0.803V8.292
	l-9.125,8.032L9.348,8.292z M27.598,6.771H9.348l9.125,8.032L27.598,6.771z M7.348,21.229H5.876l-0.965-4.016h2.437
	C7.348,17.213,7.348,21.229,7.348,21.229z M7.348,16.008H4.622l-0.965-4.016h3.691C7.348,11.992,7.348,16.008,7.348,16.008z
	 M7.348,10.787H3.367L2.402,6.771h4.946V10.787z"/>
<path fill="#FFFFFF" d="M9.348,9.292v12.134c0,0.442,0.316,0.803,0.702,0.803h16.846c0.386,0,0.702-0.361,0.702-0.803V9.292
	l-9.125,8.032L9.348,9.292z M27.598,7.771H9.348l9.125,8.032L27.598,7.771z M7.348,22.229H5.876l-0.965-4.016h2.437
	C7.348,18.213,7.348,22.229,7.348,22.229z M7.348,17.008H4.622l-0.965-4.016h3.691C7.348,12.992,7.348,17.008,7.348,17.008z
	 M7.348,11.787H3.367L2.402,7.771h4.946V11.787z"/>
</svg>
