<?xml version="1.0" encoding="utf-8"?>
<!-- Generator: Adobe Illustrator 15.0.0, SVG Export Plug-In . SVG Version: 6.00 Build 0)  -->
<!DOCTYPE svg PUBLIC "-//W3C//DTD SVG 1.1//EN" "http://www.w3.org/Graphics/SVG/1.1/DTD/svg11.dtd">
<svg version="1.1" xmlns="http://www.w3.org/2000/svg" xmlns:xlink="http://www.w3.org/1999/xlink" x="0px" y="0px" width="30px"
	 height="30px" viewBox="0 0 30 30" enable-background="new 0 0 30 30" xml:space="preserve">
<g id="DO_NOT_EDIT_-_BOUNDING_BOX">
	<rect id="BOUNDING_BOX" fill="none" width="30" height="30"/>
</g>
<g id="PLACE_YOUR_GRAPHIC_HERE">
	<g>
		<path opacity="0.3" d="M26.09,3.895L23.635,2.18c-0.451-0.316-1.072-0.201-1.383,0.254L10.986,18.555l-4.252-5.908
			c-0.32-0.449-0.943-0.551-1.389-0.225l-2.42,1.768c-0.443,0.324-0.543,0.953-0.221,1.402l6.529,9.193
			C9.709,25.549,10.268,26,10.998,26c0.693,0,1.191-0.409,1.645-1.102L26.338,5.292C26.65,4.837,26.539,4.211,26.09,3.895z"/>
		<path opacity="0.15" d="M10.998,28c-1.038,0-1.917-0.567-2.613-1.687L1.89,17.171c-0.638-0.889-0.439-2.142,0.446-2.789
			l2.42-1.768c0.342-0.25,0.748-0.384,1.172-0.384c0.642,0,1.248,0.313,1.62,0.835l3.426,4.76L21.433,2.861
			c0.364-0.535,0.979-0.86,1.638-0.86c0.409,0,0.803,0.125,1.139,0.36l2.453,1.714c0.897,0.632,1.121,1.88,0.5,2.783l-13.7,19.613
			C13.228,26.83,12.462,28,10.998,28z"/>
		<path opacity="0.15" d="M26.09,4.895L23.635,3.18c-0.451-0.316-1.072-0.201-1.383,0.254L10.986,19.555l-4.252-5.908
			c-0.32-0.449-0.943-0.551-1.389-0.225l-2.42,1.768c-0.443,0.324-0.543,0.953-0.221,1.402l6.529,9.193
			C9.709,26.549,10.268,27,10.998,27c0.693,0,1.191-0.409,1.645-1.102L26.338,6.292C26.65,5.837,26.539,5.211,26.09,4.895z"/>
		<path fill="#FFFFFF" d="M26.09,4.895L23.635,3.18c-0.451-0.316-1.072-0.201-1.383,0.254L10.986,19.555l-4.252-5.908
			c-0.32-0.449-0.943-0.551-1.389-0.225l-2.42,1.768c-0.443,0.324-0.543,0.953-0.221,1.402l6.529,9.193
			C9.709,26.549,10.268,27,10.998,27c0.693,0,1.191-0.409,1.645-1.102L26.338,6.292C26.65,5.837,26.539,5.211,26.09,4.895z"/>
		<rect fill="none" width="30" height="30"/>
	</g>
</g>
</svg>
