<?xml version="1.0" encoding="utf-8"?>
<!-- Generator: Adobe Illustrator 15.0.0, SVG Export Plug-In . SVG Version: 6.00 Build 0)  -->
<!DOCTYPE svg PUBLIC "-//W3C//DTD SVG 1.1//EN" "http://www.w3.org/Graphics/SVG/1.1/DTD/svg11.dtd">
<svg version="1.1" id="图层_1" xmlns="http://www.w3.org/2000/svg" xmlns:xlink="http://www.w3.org/1999/xlink" x="0px" y="0px"
	 width="30px" height="30px" viewBox="0 0 30 30" enable-background="new 0 0 30 30" xml:space="preserve">
<g>
	<g id="DO_NOT_EDIT_-_BOUNDING_BOX">
		<rect id="BOUNDING_BOX" fill="none" width="30" height="30"/>
	</g>
	<path opacity="0.15" fill="#FFFFFF" enable-background="new    " d="M10.997,28c-1.038,0-1.917-0.556-2.613-1.655l-6.495-8.967
		c-0.638-0.871-0.439-2.101,0.446-2.735l2.42-1.734c0.342-0.245,0.748-0.376,1.173-0.376c0.641,0,1.247,0.307,1.619,0.819
		l3.426,4.668l10.46-14.676C21.796,2.82,22.411,2.5,23.068,2.5c0.41,0,0.805,0.123,1.141,0.353l2.453,1.681
		c0.896,0.62,1.121,1.844,0.5,2.729l-13.7,19.235C13.227,26.853,12.461,28,10.997,28z"/>
	<path opacity="0.15" fill="#FFFFFF" enable-background="new    " d="M26.09,5.339l-2.455-1.682
		c-0.451-0.31-1.072-0.198-1.383,0.249l-11.266,15.81l-4.252-5.794c-0.32-0.44-0.943-0.54-1.389-0.221l-2.42,1.734
		c-0.443,0.317-0.543,0.935-0.221,1.375l6.529,9.017c0.476,0.749,1.035,1.191,1.765,1.191c0.693,0,1.191-0.401,1.645-1.081
		L26.338,6.709C26.65,6.263,26.539,5.649,26.09,5.339z"/>
	<path fill="#FFFFFF" d="M26.09,5.339l-2.455-1.682c-0.451-0.31-1.072-0.198-1.383,0.249l-11.266,15.81l-4.252-5.794
		c-0.32-0.44-0.943-0.54-1.389-0.221l-2.42,1.734c-0.443,0.317-0.543,0.935-0.221,1.375l6.529,9.017
		c0.476,0.749,1.035,1.191,1.765,1.191c0.693,0,1.191-0.401,1.645-1.081L26.338,6.709C26.65,6.263,26.539,5.649,26.09,5.339z"/>
	<rect fill="none" width="30" height="30"/>
	
		<linearGradient id="SVGID_1_" gradientUnits="userSpaceOnUse" x1="-247.5249" y1="91.3018" x2="-247.5249" y2="114.8379" gradientTransform="matrix(1 0 0 -1 262.04 117.3398)">
		<stop  offset="0" style="stop-color:#636363"/>
		<stop  offset="1" style="stop-color:#000000"/>
	</linearGradient>
	<path fill="url(#SVGID_1_)" d="M26.09,4.358l-2.455-1.682c-0.451-0.31-1.072-0.197-1.383,0.249L10.986,18.736l-4.252-5.794
		c-0.32-0.44-0.943-0.541-1.389-0.221l-2.42,1.734c-0.443,0.318-0.543,0.935-0.221,1.375l6.529,9.017
		c0.476,0.749,1.035,1.191,1.765,1.191c0.693,0,1.191-0.401,1.645-1.08L26.338,5.729C26.65,5.282,26.539,4.668,26.09,4.358z"/>
</g>
</svg>
