<?xml version="1.0" encoding="UTF-8" standalone="no"?>
<svg
   xmlns:dc="http://purl.org/dc/elements/1.1/"
   xmlns:cc="http://creativecommons.org/ns#"
   xmlns:rdf="http://www.w3.org/1999/02/22-rdf-syntax-ns#"
   xmlns:svg="http://www.w3.org/2000/svg"
   xmlns="http://www.w3.org/2000/svg"
   xmlns:sodipodi="http://sodipodi.sourceforge.net/DTD/sodipodi-0.dtd"
   xmlns:inkscape="http://www.inkscape.org/namespaces/inkscape"
   height="30px"
   version="1.1"
   viewBox="0 0 30 30"
   width="30px"
   x="0px"
   y="0px"
   id="svg2"
   inkscape:version="0.48.2 r9819"
   sodipodi:docname="release-refresh.svg">
  <metadata
     id="metadata16">
    <rdf:RDF>
      <cc:Work
         rdf:about="">
        <dc:format>image/svg+xml</dc:format>
        <dc:type
           rdf:resource="http://purl.org/dc/dcmitype/StillImage" />
        <dc:title></dc:title>
      </cc:Work>
    </rdf:RDF>
  </metadata>
  <defs
     id="defs14" />
  <sodipodi:namedview
     pagecolor="#ffffff"
     bordercolor="#666666"
     borderopacity="1"
     objecttolerance="10"
     gridtolerance="10"
     guidetolerance="10"
     inkscape:pageopacity="0"
     inkscape:pageshadow="2"
     inkscape:window-width="640"
     inkscape:window-height="480"
     id="namedview12"
     showgrid="false"
     inkscape:zoom="7.8666667"
     inkscape:cx="15"
     inkscape:cy="15"
     inkscape:window-x="0"
     inkscape:window-y="0"
     inkscape:window-maximized="0"
     inkscape:current-layer="svg2" />
  <path
     d="m 26.7915,16.2075 c 0,0.535 -0.207,1.037 -0.584,1.414 l -9.586,9.586 c -0.779,0.78 -2.049,0.78 -2.828,0 l -9.586,-9.586 c -0.377,-0.377 -0.584,-0.879 -0.584,-1.414 0,-0.535 0.207,-1.037 0.584,-1.414 l 1.586,-1.586 c 0.779,-0.78 2.049,-0.78 2.828,0 l 3.586,3.586 0,-12.586 c 0,-1.103 0.897,-2 2,-2 l 2,0 c 1.103,0 2,0.897 2,2 l 0,12.586 3.586,-3.586 c 0.779,-0.78 2.049,-0.78 2.828,0 l 1.586,1.586 c 0.377,0.377 0.584,0.879 0.584,1.414 l 0,0 z"
     id="path4"
     inkscape:connector-curvature="0"
     style="fill-opacity:0.15;stroke-opacity:0.15" />
  <path
     d="m 13.207625,3.207625 0,15 -5.293,-5.293 c -0.389,-0.389 -1.025,-0.389 -1.414,0 l -1.586,1.586 c -0.389,0.389 -0.389,1.025 0,1.414 l 9.586,9.586 c 0.389,0.389 1.025,0.389 1.414,0 l 9.586,-9.586 c 0.389,-0.389 0.389,-1.025 0,-1.414 l -1.586,-1.586 c -0.389,-0.389 -1.025,-0.389 -1.414,0 l -5.293,5.293 0,-15 c 0,-0.55 -0.449,-1 -1,-1 l -2,0 c -0.549,0 -1,0.45 -1,1 z"
     id="path6"
     inkscape:connector-curvature="0"
     style="fill-opacity:0.3;stroke-opacity:0.3" />
  <path
     d="m 13.207625,4.207625 0,15 -5.293,-5.293 c -0.389,-0.389 -1.025,-0.389 -1.414,0 l -1.586,1.586 c -0.389,0.389 -0.389,1.025 0,1.414 l 9.586,9.586 c 0.389,0.389 1.025,0.389 1.414,0 l 9.586,-9.586 c 0.389,-0.389 0.389,-1.025 0,-1.414 l -1.586,-1.586 c -0.389,-0.389 -1.025,-0.389 -1.414,0 l -5.293,5.293 0,-15 c 0,-0.55 -0.45,-1 -1,-1 l -2,0 c -0.55,0 -1,0.45 -1,1 z"
     id="path8"
     inkscape:connector-curvature="0"
     style="fill:#ffffff" />
  <rect
     height="30"
     width="30"
     id="rect10"
     x="-30"
     y="-30"
     transform="scale(-1,-1)"
     style="fill:none" />
</svg>
