<?xml version="1.0" encoding="utf-8"?>
<!-- Generator: Adobe Illustrator 15.0.0, SVG Export Plug-In . SVG Version: 6.00 Build 0)  -->
<!DOCTYPE svg PUBLIC "-//W3C//DTD SVG 1.1//EN" "http://www.w3.org/Graphics/SVG/1.1/DTD/svg11.dtd">
<svg version="1.1" id="图层_1" xmlns="http://www.w3.org/2000/svg" xmlns:xlink="http://www.w3.org/1999/xlink" x="0px" y="0px"
	 width="30px" height="30px" viewBox="0 0 30 30" enable-background="new 0 0 30 30" xml:space="preserve">
<g>
	<g id="DO_NOT_EDIT_-_BOUNDING_BOX">
		<rect id="BOUNDING_BOX" fill="none" width="30" height="30"/>
	</g>
	<path opacity="0.3" fill="#FFFFFF" enable-background="new    " d="M10,30c-0.17,0-0.34-0.043-0.493-0.131
		C9.194,29.691,9,29.359,9,29v-1.063C5.059,27.443,2,24.072,2,20c0-0.227,0.074-0.434,0.2-0.602C2.074,19.232,2,19.025,2,18.798V6
		c0-0.182,0.049-0.354,0.134-0.5C2.049,5.353,2,5.181,2,5V3c0-1.104,0.897-2,2-2h12.002c0.426,0,0.803,0.27,0.943,0.667l2.539-1.524
		C19.645,0.046,19.822,0,20,0c0.17,0,0.34,0.043,0.493,0.13C20.807,0.306,21,0.64,21,1v1.063c3.939,0.494,7,3.865,7,7.938
		c0,0.225-0.074,0.434-0.2,0.6c0.126,0.168,0.2,0.375,0.2,0.601V13c0,0.182-0.049,0.354-0.134,0.5C27.951,13.646,28,13.818,28,14v14
		c0,1.104-0.896,2-2,2H12.332c-0.426,0-0.803-0.27-0.943-0.668l-0.875,0.525C10.356,29.951,10.178,30,10,30z M6.537,22
		C7.068,22.916,7.951,23.604,9,23.873V23c0-0.359,0.194-0.691,0.507-0.871C9.66,22.043,9.83,22,9.999,22H6.537z M23.874,9.002
		c-0.36-1.405-1.47-2.514-2.874-2.877V7c0,0.359-0.193,0.693-0.507,0.87C20.34,7.957,20.17,8,20,8v1C20,9,23.85,9,23.874,9.002z"/>
	<path opacity="0.8" fill="#FFFFFF" d="M13.8,3.563c0-0.422,0.222-0.813,0.583-1.029l1.619-0.971H4c-0.553,0-1,0.447-1,1v2h11.347
		C14.008,4.341,13.8,3.969,13.8,3.563z M15,3.563l5,3v-2c2.757,0,5,2.243,5,5h2c0-3.859-3.141-7-7-7v-2L15,3.563z M6.2,19.563
		c0,0.348,0.058,0.68,0.145,1H10v-10c0-1.104,0.896-2,2-2h7V7.361l-2.998-1.799H3v12.8h2C5.662,18.362,6.2,18.9,6.2,19.563z
		 M23.8,9.563H12c-0.553,0-1,0.447-1,1v2h16v-1.8h-2C24.338,10.763,23.8,10.225,23.8,9.563z M15,25.563l-5-3v2c-2.757,0-5-2.243-5-5
		H3c0,3.859,3.141,7,7,7v2L15,25.563z M11,21.764l4.617,2.77c0.361,0.217,0.583,0.607,0.583,1.029s-0.222,0.813-0.583,1.029
		l-3.285,1.971H26c0.553,0,1-0.447,1-1v-14H11V21.764z"/>
	
		<linearGradient id="SVGID_1_" gradientUnits="userSpaceOnUse" x1="50.3203" y1="374.9209" x2="50.3203" y2="346.9209" gradientTransform="matrix(1 0 0 1 -35.3203 -346.9209)">
		<stop  offset="0" style="stop-color:#636363"/>
		<stop  offset="1" style="stop-color:#000000"/>
	</linearGradient>
	<path fill="url(#SVGID_1_)" d="M13.8,3c0-0.422,0.222-0.813,0.583-1.029L16.002,1H4C3.447,1,3,1.447,3,2v2h11.347
		C14.008,3.779,13.8,3.406,13.8,3z M15,3l5,3V4c2.757,0,5,2.243,5,5h2c0-3.859-3.141-7-7-7V0L15,3z M6.2,19
		c0,0.348,0.058,0.68,0.145,1H10V10c0-1.104,0.896-2,2-2h7V6.799L16.002,5H3v12.8h2C5.662,17.8,6.2,18.338,6.2,19z M23.8,9H12
		c-0.553,0-1,0.447-1,1v2h16v-1.8h-2C24.338,10.2,23.8,9.662,23.8,9z M15,25l-5-3v2c-2.757,0-5-2.243-5-5H3c0,3.859,3.141,7,7,7v2
		L15,25z M11,21.201l4.617,2.77C15.979,24.188,16.2,24.578,16.2,25s-0.222,0.813-0.583,1.029L12.332,28H26c0.553,0,1-0.447,1-1V13
		H11V21.201z"/>
</g>
</svg>
