<?xml version="1.0" encoding="utf-8"?>
<!-- Generator: Adobe Illustrator 15.0.0, SVG Export Plug-In . SVG Version: 6.00 Build 0)  -->
<!DOCTYPE svg PUBLIC "-//W3C//DTD SVG 1.1//EN" "http://www.w3.org/Graphics/SVG/1.1/DTD/svg11.dtd">
<svg version="1.1" id="图层_1" xmlns="http://www.w3.org/2000/svg" xmlns:xlink="http://www.w3.org/1999/xlink" x="0px" y="0px"
	 width="30px" height="30px" viewBox="0 0 30 30" enable-background="new 0 0 30 30" xml:space="preserve">
<g>
	<g id="DO_NOT_EDIT_-_BOUNDING_BOX">
		<rect id="BOUNDING_BOX" fill="none" width="30" height="30"/>
	</g>
	<rect fill="none" width="30" height="30"/>
	<g>
		<path opacity="0.15" fill="#FFFFFF" enable-background="new    " d="M22.418,27.846c-0.46,0-0.893-0.184-1.218-0.508l-6.202-6.203
			l-6.207,6.203c-0.324,0.324-0.757,0.508-1.217,0.508c-0.459,0-0.89-0.184-1.217-0.508l-1.854-1.854
			c-0.671-0.67-0.671-1.765,0-2.437l6.206-6.203L4.503,10.64c-0.327-0.325-0.505-0.759-0.504-1.219C4,8.96,4.178,8.527,4.506,8.206
			l1.853-1.853c0.325-0.326,0.758-0.505,1.217-0.505c0.46,0,0.894,0.18,1.217,0.505l6.206,6.204l6.207-6.206
			c0.321-0.324,0.753-0.505,1.215-0.505c0.459,0,0.892,0.18,1.216,0.505l1.855,1.854c0.324,0.323,0.51,0.754,0.51,1.216
			c0,0.46-0.186,0.895-0.51,1.218l-6.203,6.207l6.203,6.203c0.674,0.672,0.674,1.766,0,2.436l-1.854,1.855
			C23.311,27.662,22.877,27.846,22.418,27.846z"/>
		<path opacity="0.15" fill="#FFFFFF" enable-background="new    " d="M18.09,16.846l6.805-6.804c0.34-0.341,0.34-0.898,0-1.237
			L23.04,6.949c-0.347-0.343-0.896-0.343-1.238,0l-6.803,6.802L8.195,6.949c-0.342-0.343-0.896-0.343-1.239,0L5.102,8.805
			c-0.342,0.34-0.342,0.896,0,1.238l6.804,6.805l-6.804,6.801c-0.342,0.347-0.342,0.896,0,1.238l1.854,1.855
			c0.341,0.342,0.897,0.342,1.239,0l6.803-6.807l6.804,6.805c0.341,0.344,0.894,0.344,1.238,0l1.854-1.855
			c0.34-0.346,0.34-0.895,0-1.236L18.09,16.846z"/>
		<path fill="#FFFFFF" d="M18.09,16.846l6.805-6.804c0.34-0.341,0.34-0.898,0-1.237L23.04,6.949c-0.347-0.343-0.896-0.343-1.238,0
			l-6.803,6.802L8.195,6.949c-0.342-0.343-0.896-0.343-1.239,0L5.102,8.805c-0.342,0.34-0.342,0.896,0,1.238l6.804,6.805
			l-6.804,6.801c-0.342,0.347-0.342,0.896,0,1.238l1.854,1.855c0.341,0.342,0.897,0.342,1.239,0l6.803-6.807l6.804,6.805
			c0.341,0.344,0.894,0.344,1.238,0l1.854-1.855c0.34-0.346,0.34-0.895,0-1.236L18.09,16.846z"/>
		
			<linearGradient id="SVGID_1_" gradientUnits="userSpaceOnUse" x1="-1295.2026" y1="-1037.4521" x2="-1295.2026" y2="-1017.145" gradientTransform="matrix(1 0 0 -1 1310.2002 -1011.3008)">
			<stop  offset="0" style="stop-color:#636363"/>
			<stop  offset="1" style="stop-color:#000000"/>
		</linearGradient>
		<path fill="url(#SVGID_1_)" d="M18.09,15.998l6.805-6.805c0.34-0.341,0.34-0.897,0-1.236L23.04,6.101
			c-0.347-0.342-0.897-0.342-1.238,0l-6.803,6.805L8.195,6.102c-0.342-0.342-0.896-0.342-1.239,0L5.102,7.958
			c-0.342,0.339-0.342,0.895,0,1.236L11.906,16l-6.804,6.803c-0.342,0.346-0.342,0.896,0,1.238l1.854,1.855
			c0.341,0.34,0.897,0.34,1.239,0l6.803-6.808l6.804,6.808c0.341,0.34,0.894,0.34,1.238,0l1.854-1.857c0.34-0.34,0.34-0.896,0-1.238
			L18.09,15.998z"/>
	</g>
</g>
</svg>
