<?xml version="1.0" encoding="utf-8"?>
<!-- Generator: Adobe Illustrator 15.0.0, SVG Export Plug-In . SVG Version: 6.00 Build 0)  -->
<!DOCTYPE svg PUBLIC "-//W3C//DTD SVG 1.1//EN" "http://www.w3.org/Graphics/SVG/1.1/DTD/svg11.dtd">
<svg version="1.1" id="svg3933" xmlns="http://www.w3.org/2000/svg" xmlns:xlink="http://www.w3.org/1999/xlink" x="0px" y="0px"
	 width="30px" height="30px" viewBox="0 0 30 30" enable-background="new 0 0 30 30" xml:space="preserve">
<g>
	<g id="DO_NOT_EDIT_-_BOUNDING_BOX">
		<rect id="BOUNDING_BOX" fill="none" width="30" height="30"/>
	</g>
	<g>
		<path id="path3938" fill="#FFFFFF" fill-opacity="0.3" d="M23.705,20.02h-1.583v-2.621H7.878v2.621H6.295v-2.621H2.338v6.115
			c0,0.961,0.713,1.748,1.583,1.748h22.158c0.87,0,1.583-0.787,1.583-1.748v-6.115h-3.957V20.02z M26.079,7.787h-0.791V5.07
			c0-0.909-0.674-1.654-1.499-1.654H7.002c-0.825,0-1.499,0.744-1.499,1.654v2.716H3.921c-0.87,0-1.583,0.787-1.583,1.748v6.116
			h25.324V9.534C27.662,8.573,26.949,7.787,26.079,7.787z M23.705,7.787H7.086V5.165h16.619V7.787z"/>
		<path id="path3940" fill="#FFFFFF" fill-opacity="0.15" d="M3.921,27.258c-1.372,0-2.487-1.229-2.487-2.744v-6.117
			c0-0.377,0-1.371,0-1.748v-6.116c0-1.515,1.115-2.745,2.487-2.745h0.678V6.069c0-1.462,1.078-2.652,2.403-2.652h16.787
			c1.326,0,2.402,1.189,2.402,2.652v1.719c1.318,0.065,2.375,1.271,2.375,2.744v6.116c0,0.377,0,1.371,0,1.748v6.115
			c0,1.516-1.114,2.745-2.487,2.745L3.921,27.258L3.921,27.258z M22.801,7.787V7.163H7.991v0.625L22.801,7.787L22.801,7.787z"/>
		<g>
			<path id="path3944" fill="#FFFFFF" d="M23.705,21.578h-1.583v-2.62H7.878v2.62H6.295v-2.62H2.338v6.115
				c0,0.962,0.713,1.747,1.583,1.747h22.158c0.87,0,1.583-0.785,1.583-1.747v-6.115h-3.957V21.578z M26.079,9.346h-0.791V6.631
				c0-0.909-0.674-1.653-1.499-1.653H7.002c-0.825,0-1.499,0.744-1.499,1.653v2.715H3.921c-0.87,0-1.583,0.788-1.583,1.747v6.116
				h25.324v-6.116C27.662,10.134,26.949,9.346,26.079,9.346z M23.705,9.346H7.086v-2.62h16.619V9.346z"/>
			<path id="path3956_1_" fill="#FFFFFF" d="M7.987,8.08c0-0.251,0.077-0.255,7.358-0.255c7.281,0,7.358,0.002,7.358,0.255
				c0,0.25-0.077,0.253-7.358,0.253C8.064,8.333,7.987,8.331,7.987,8.08z"/>
		</g>
		<g>
			
				<linearGradient id="path3942_1_" gradientUnits="userSpaceOnUse" x1="-509.0801" y1="590.3701" x2="-509.0801" y2="568.7363" gradientTransform="matrix(1 0 0 1 524.0801 -564.3203)">
				<stop  offset="0" style="stop-color:#636363"/>
				<stop  offset="1" style="stop-color:#000000"/>
			</linearGradient>
			<path id="path3942" fill="url(#path3942_1_)" d="M23.621,20.857h-1.566V18.26H7.946v2.598H6.379V18.26H2.46v6.061
				c0,0.949,0.706,1.729,1.568,1.729h21.947c0.859,0,1.565-0.78,1.565-1.729V18.26h-3.919V20.857z M25.975,8.743h-0.785V6.054
				c0-0.901-0.666-1.638-1.482-1.638H7.079c-0.817,0-1.484,0.736-1.484,1.638v2.689H4.028c-0.862,0-1.568,0.779-1.568,1.73v6.056
				h25.08v-6.056C27.54,9.521,26.834,8.743,25.975,8.743z M23.621,8.743H7.163V6.147h16.458V8.743z"/>
			
				<linearGradient id="path3956_2_" gradientUnits="userSpaceOnUse" x1="-508.7388" y1="572.0605" x2="-508.7388" y2="571.5576" gradientTransform="matrix(1 0 0 1 524.0801 -564.3203)">
				<stop  offset="0" style="stop-color:#636363"/>
				<stop  offset="1" style="stop-color:#000000"/>
			</linearGradient>
			<path id="path3956" fill="url(#path3956_2_)" d="M8.054,7.489c0-0.25,0.076-0.253,7.287-0.253s7.288,0.003,7.288,0.253
				c0,0.248-0.076,0.251-7.288,0.251C8.13,7.74,8.054,7.737,8.054,7.489z"/>
		</g>
	</g>
</g>
</svg>
