<?xml version="1.0" encoding="utf-8"?>
<!-- Generator: Adobe Illustrator 16.0.0, SVG Export Plug-In . SVG Version: 6.00 Build 0)  -->
<!DOCTYPE svg PUBLIC "-//W3C//DTD SVG 1.1//EN" "http://www.w3.org/Graphics/SVG/1.1/DTD/svg11.dtd">
<svg version="1.1" id="图层_1" xmlns="http://www.w3.org/2000/svg" xmlns:xlink="http://www.w3.org/1999/xlink" x="0px" y="0px"
	 width="30px" height="30px" viewBox="0 0 30 30" enable-background="new 0 0 30 30" xml:space="preserve">
<g>
	<path fill="#CCCCCC" d="M15,11.999c-1.656,0-3,1.344-3,3C12,16.656,13.344,18,15,18c1.657,0,3-1.344,3-3.001
		C18,13.343,16.657,11.999,15,11.999z M5,11.999c-1.656,0-3,1.344-3,3C2,16.656,3.344,18,5,18c1.657,0,3-1.344,3-3.001
		C8,13.343,6.657,11.999,5,11.999z M25,11.999c-1.656,0-3,1.344-3,3C22,16.656,23.344,18,25,18c1.657,0,3-1.344,3-3.001
		C28,13.343,26.657,11.999,25,11.999z"/>
	<path fill="#FFFFFF" d="M15,11.999c-1.656,0-3,1.344-3,3C12,16.656,13.344,18,15,18c1.657,0,3-1.344,3-3.001
		C18,13.343,16.657,11.999,15,11.999z M5,11.999c-1.656,0-3,1.344-3,3C2,16.656,3.344,18,5,18c1.657,0,3-1.344,3-3.001
		C8,13.343,6.657,11.999,5,11.999z M25,11.999c-1.656,0-3,1.344-3,3C22,16.656,23.344,18,25,18c1.657,0,3-1.344,3-3.001
		C28,13.343,26.657,11.999,25,11.999z"/>
	<g id="DO_NOT_EDIT_-_BOUNDING_BOX">
		<rect id="BOUNDING_BOX" fill="none" width="30" height="30"/>
	</g>
	<linearGradient id="SVGID_1_" gradientUnits="userSpaceOnUse" x1="15.0005" y1="17" x2="15.0005" y2="10.9995">
		<stop  offset="0" style="stop-color:#636363"/>
		<stop  offset="1" style="stop-color:#000000"/>
	</linearGradient>
	<path fill="url(#SVGID_1_)" d="M15,10.999c-1.656,0-3,1.344-3,3C12,15.656,13.344,17,15,17c1.657,0,3-1.344,3-3.001
		C18,12.343,16.657,10.999,15,10.999z M5,10.999c-1.656,0-3,1.344-3,3C2,15.656,3.344,17,5,17c1.657,0,3-1.344,3-3.001
		C8,12.343,6.657,10.999,5,10.999z M25,10.999c-1.656,0-3,1.344-3,3C22,15.656,23.344,17,25,17c1.657,0,3-1.344,3-3.001
		C28,12.343,26.657,10.999,25,10.999z"/>
	<rect y="-0.001" fill="none" width="30" height="30.001"/>
</g>
</svg>
